<svg width="37" height="28" viewBox="0 0 37 28" fill="none" xmlns="http://www.w3.org/2000/svg">
<path d="M35.1025 0H1.89748C0.853817 0 0 0.969197 0 2.15381V25.8461C0 27.0306 0.853817 28 1.89748 28H35.1025C36.146 28 37 27.0308 37 25.8461V2.15381C36.9999 0.969197 36.1461 0 35.1025 0ZM34.3904 1.61527L19.5915 14.2154C19.3254 14.4453 18.9169 14.5891 18.4999 14.5869C18.0829 14.5891 17.6745 14.4453 17.4084 14.2154L2.60943 1.61527H34.3904ZM26.4853 15.0468L34.5494 26.3545C34.5575 26.3659 34.5674 26.3745 34.576 26.3847H2.42393C2.43246 26.374 2.44243 26.3659 2.45052 26.3545L10.5146 15.0468C10.7617 14.7001 10.7149 14.1917 10.4088 13.9106C10.1034 13.6301 9.65554 13.6833 9.40839 14.0301L1.42305 25.2274V2.62491L16.555 15.5076C17.1238 15.9884 17.8158 16.2001 18.4998 16.2022C19.1829 16.2006 19.8755 15.9889 20.4446 15.5076L35.5766 2.62491V25.2273L27.5915 14.0301C27.3443 13.6834 26.8961 13.63 26.591 13.9106C26.2851 14.1911 26.2381 14.7001 26.4853 15.0468Z" fill="#CB3B48"/>
</svg>
