<svg width="29" height="26" viewBox="0 0 29 26">
<path fill="#fff" d="M27.4759 2.37797H10.7942C10.3356 0.997428 9.04715 0 7.53232 0C6.01748 0 4.72908 0.997428 4.27045 2.37797H1.66656C1.06168 2.37797 0.571289 2.87499 0.571289 3.48804C0.571289 4.10109 1.06168 4.5981 1.66656 4.5981H4.27053C4.72915 5.97864 6.01756 6.97607 7.53239 6.97607C9.04722 6.97607 10.3356 5.97864 10.7942 4.5981H27.476C28.0809 4.5981 28.5713 4.10109 28.5713 3.48804C28.5713 2.87499 28.0809 2.37797 27.4759 2.37797V2.37797ZM7.53232 4.75595C6.84251 4.75595 6.2813 4.18715 6.2813 3.48804C6.2813 2.78892 6.84251 2.22012 7.53232 2.22012C8.22212 2.22012 8.78333 2.78892 8.78333 3.48804C8.78333 4.18715 8.22212 4.75595 7.53232 4.75595Z"/>
<path fill="#fff" d="M27.4759 11.8902H24.872C24.4134 10.5096 23.1249 9.51221 21.6101 9.51221C20.0954 9.51221 18.807 10.5096 18.3483 11.8902H1.66656C1.06168 11.8902 0.571289 12.3872 0.571289 13.0002C0.571289 13.6133 1.06168 14.1103 1.66656 14.1103H18.3483C18.807 15.4909 20.0954 16.4883 21.6102 16.4883C23.1249 16.4883 24.4134 15.4909 24.872 14.1103H27.476C28.0809 14.1103 28.5713 13.6133 28.5713 13.0002C28.5713 12.3872 28.0809 11.8902 27.4759 11.8902ZM21.6102 14.2682C20.9204 14.2682 20.3592 13.6994 20.3592 13.0002C20.3592 12.3011 20.9204 11.7323 21.6102 11.7323C22.3 11.7323 22.8612 12.3011 22.8612 13.0002C22.8612 13.6994 22.3 14.2682 21.6102 14.2682Z"/>
<path fill="#fff" d="M27.4759 21.4019H15.4868C15.0282 20.0214 13.7398 19.0239 12.225 19.0239C10.7101 19.0239 9.42173 20.0214 8.9631 21.4019H1.66656C1.06168 21.4019 0.571289 21.8989 0.571289 22.512C0.571289 23.125 1.06168 23.622 1.66656 23.622H8.9631C9.42173 25.0026 10.7101 26 12.225 26C13.7398 26 15.0282 25.0026 15.4868 23.622H27.476C28.0809 23.622 28.5713 23.125 28.5713 22.512C28.5713 21.8989 28.0809 21.4019 27.4759 21.4019ZM12.225 23.7799C11.5352 23.7799 10.9739 23.2112 10.9739 22.512C10.9739 21.8129 11.5352 21.2441 12.225 21.2441C12.9148 21.2441 13.476 21.8128 13.476 22.512C13.476 23.2111 12.9148 23.7799 12.225 23.7799V23.7799Z"/>
</svg>
