<svg width="18" height="18" viewBox="0 0 18 18" fill="none" xmlns="http://www.w3.org/2000/svg">
<path d="M8.8982 0.742782C5.48139 0.742782 2.2368 0.439077 0.997487 3.61717C0.485578 4.92978 0.559918 6.63448 0.559918 9.0754C0.559918 11.2173 0.491224 13.2304 0.997487 14.5327C2.23397 17.7127 5.50492 17.408 8.89631 17.408C12.1682 17.408 15.5417 17.7484 16.7961 14.5327C17.3089 13.2069 17.2337 11.5276 17.2337 9.0754C17.2337 5.82021 17.4134 3.71872 15.8334 2.14096C14.2337 0.542506 12.0703 0.742782 8.89443 0.742782H8.8982ZM8.15104 2.24438C15.2782 2.2331 16.1854 1.4414 15.6848 12.4397C15.5069 16.3295 12.5427 15.9027 8.89914 15.9027C2.25562 15.9027 2.06459 15.7127 2.06459 9.07164C2.06459 2.35346 2.59156 2.24815 8.15104 2.2425V2.24438ZM13.3492 3.62751C12.7968 3.62751 12.3489 4.07508 12.3489 4.62701C12.3489 5.17895 12.7968 5.62651 13.3492 5.62651C13.9015 5.62651 14.3495 5.17895 14.3495 4.62701C14.3495 4.07508 13.9015 3.62751 13.3492 3.62751V3.62751ZM8.8982 4.79626C6.53344 4.79626 4.61661 6.71252 4.61661 9.0754C4.61661 11.4383 6.53344 13.3536 8.8982 13.3536C11.263 13.3536 13.1788 11.4383 13.1788 9.0754C13.1788 6.71252 11.263 4.79626 8.8982 4.79626V4.79626ZM8.8982 6.29786C12.5728 6.29786 12.5775 11.8529 8.8982 11.8529C5.2245 11.8529 5.21885 6.29786 8.8982 6.29786Z" fill="#BD2D43"/>
</svg>
