<svg width="30" height="31" viewBox="0 0 30 31" fill="none" xmlns="http://www.w3.org/2000/svg">
<path d="M23.7221 18.611C23.1071 17.9706 22.3652 17.6282 21.5789 17.6282C20.799 17.6282 20.0507 17.9642 19.4103 18.6047L17.4066 20.602C17.2417 20.5133 17.0768 20.4308 16.9183 20.3484C16.69 20.2343 16.4745 20.1265 16.2906 20.0123C14.4137 18.8202 12.7079 17.2667 11.072 15.2566C10.2794 14.2548 9.74673 13.4114 9.35993 12.5554C9.87989 12.0798 10.3618 11.5852 10.831 11.1097C11.0086 10.9321 11.1861 10.7482 11.3637 10.5707C12.6953 9.23911 12.6953 7.51438 11.3637 6.18278L9.63259 4.45171C9.43602 4.25514 9.23311 4.05223 9.04289 3.84932C8.66243 3.45618 8.26295 3.05036 7.85079 2.66991C7.23572 2.06118 6.50018 1.73779 5.72658 1.73779C4.95299 1.73779 4.20476 2.06118 3.57067 2.66991C3.56433 2.67625 3.56433 2.67625 3.55799 2.68259L1.40207 4.85753C0.590434 5.66917 0.127547 6.65835 0.026092 7.80606C-0.12609 9.65761 0.419229 11.3823 0.83773 12.511C1.86496 15.282 3.39946 17.8501 5.68854 20.602C8.46586 23.9183 11.8075 26.5371 15.6248 28.3824C17.0832 29.0735 19.0298 29.8915 21.2048 30.031C21.3379 30.0373 21.4774 30.0437 21.6043 30.0437C23.069 30.0437 24.2992 29.5174 25.263 28.4711C25.2693 28.4585 25.282 28.4521 25.2883 28.4394C25.6181 28.0399 25.9985 27.6785 26.398 27.2917C26.6707 27.0317 26.9497 26.7591 27.2223 26.4737C27.8501 25.8206 28.1798 25.0597 28.1798 24.2798C28.1798 23.4935 27.8437 22.7389 27.2033 22.1048L23.7221 18.611ZM25.9922 25.288C25.9858 25.288 25.9858 25.2943 25.9922 25.288C25.7449 25.5543 25.4912 25.7953 25.2186 26.0616C24.8064 26.4547 24.3879 26.8669 23.9948 27.3298C23.3544 28.0146 22.5998 28.338 21.6106 28.338C21.5155 28.338 21.414 28.338 21.3189 28.3316C19.4357 28.2112 17.6856 27.4756 16.373 26.8479C12.784 25.1104 9.63259 22.6438 7.01379 19.5177C4.85154 16.9116 3.40581 14.5021 2.44833 11.915C1.85862 10.3361 1.64303 9.10595 1.73814 7.94556C1.80155 7.20367 2.08689 6.5886 2.61319 6.0623L4.77544 3.90005C5.08615 3.60837 5.41588 3.44984 5.73927 3.44984C6.13874 3.44984 6.46213 3.6908 6.66504 3.89371C6.67138 3.90005 6.67772 3.90639 6.68406 3.91273C7.07086 4.27416 7.43863 4.64828 7.82543 5.04776C8.022 5.25067 8.22491 5.45357 8.42782 5.66283L10.1589 7.3939C10.831 8.06604 10.831 8.68745 10.1589 9.35958C9.975 9.54347 9.79746 9.72736 9.61357 9.9049C9.08093 10.4502 8.57366 10.9575 8.022 11.4521C8.00932 11.4648 7.99663 11.4711 7.99029 11.4838C7.44497 12.0291 7.54643 12.5618 7.66057 12.9232C7.66691 12.9422 7.67325 12.9612 7.67959 12.9803C8.12979 14.0709 8.76389 15.0981 9.72771 16.3219L9.73405 16.3283C11.4841 18.4842 13.3294 20.1645 15.3648 21.4517C15.6248 21.6166 15.8911 21.7498 16.1447 21.8766C16.373 21.9907 16.5886 22.0985 16.7725 22.2126C16.7978 22.2253 16.8232 22.2443 16.8486 22.257C17.0642 22.3648 17.2671 22.4155 17.4763 22.4155C18.0026 22.4155 18.3323 22.0858 18.4401 21.978L20.6087 19.8094C20.8243 19.5938 21.1667 19.3339 21.5662 19.3339C21.9594 19.3339 22.2827 19.5812 22.4793 19.7967C22.4856 19.8031 22.4856 19.8031 22.492 19.8094L25.9858 23.3033C26.639 23.9501 26.639 24.6158 25.9922 25.288Z" fill="#CB3B48"/>
<path d="M16.2144 7.14663C17.8757 7.42563 19.3848 8.21191 20.5896 9.41668C21.7944 10.6215 22.5743 12.1306 22.8597 13.7919C22.9294 14.2104 23.2909 14.5021 23.703 14.5021C23.7537 14.5021 23.7981 14.4958 23.8489 14.4894C24.3181 14.4133 24.6288 13.9695 24.5527 13.5002C24.2103 11.4902 23.2592 9.65764 21.8071 8.20557C20.355 6.7535 18.5225 5.80236 16.5124 5.45995C16.0432 5.38386 15.6057 5.69456 15.5232 6.15745C15.4408 6.62034 15.7452 7.07054 16.2144 7.14663Z" fill="#CB3B48"/>
<path d="M29.9871 13.2529C29.4227 9.94294 27.8629 6.931 25.466 4.53413C23.0691 2.13726 20.0572 0.577393 16.7472 0.0130506C16.2843 -0.0693815 15.8468 0.247665 15.7644 0.710552C15.6883 1.17978 15.999 1.6173 16.4682 1.69974C19.4231 2.20067 22.118 3.60201 24.2612 5.73891C26.4045 7.88214 27.7995 10.577 28.3004 13.5319C28.3701 13.9504 28.7316 14.2421 29.1437 14.2421C29.1945 14.2421 29.2388 14.2357 29.2896 14.2294C29.7525 14.1597 30.0695 13.7158 29.9871 13.2529Z" fill="#CB3B48"/>
</svg>
