<svg width="33" height="40" viewBox="0 0 33 40" fill="none" xmlns="http://www.w3.org/2000/svg">
<path d="M28.1646 4.83539C21.7178 -1.61145 11.2829 -1.61214 4.83539 4.83539C-1.61129 11.282 -1.6123 21.7171 4.83539 28.1646L15.6282 38.9574C16.1098 39.439 16.8904 39.4389 17.3719 38.9574L28.1647 28.1646C34.6113 21.718 34.6123 11.283 28.1646 4.83539ZM26.4209 26.421L16.5 36.3419L6.57906 26.421C1.10868 20.9506 1.10868 12.0495 6.57906 6.57914C12.0495 1.10883 20.9503 1.10868 26.4209 6.57914C31.8913 12.0494 31.8913 20.9505 26.4209 26.421Z" fill="#CB3B48"/>
<path d="M16.4994 9.12561C12.4238 9.12561 9.125 12.4237 9.125 16.5C9.125 20.5755 12.4232 23.8743 16.4994 23.8743C20.5751 23.8743 23.8739 20.5761 23.8739 16.5C23.8739 12.4244 20.5757 9.12561 16.4994 9.12561ZM19.9702 19.9707C19.923 19.9707 18.7608 21.4083 16.4994 21.4083C13.7866 21.4083 11.591 19.2131 11.591 16.5C11.591 13.7872 13.7863 11.5916 16.4994 11.5916C20.9062 11.5916 23.0243 16.9167 19.9702 19.9707Z" fill="#CB3B48"/>
</svg>
