<svg width="17" height="16" viewBox="0 0 17 16" fill="none" xmlns="http://www.w3.org/2000/svg">
<path d="M0.554284 7.78198L4.31995 9.18744L5.7775 13.8749C5.87076 14.1751 6.23787 14.2861 6.48154 14.0869L8.58059 12.3757C8.80061 12.1964 9.11401 12.1875 9.34395 12.3544L13.1299 15.103C13.3905 15.2925 13.7598 15.1497 13.8252 14.8347L16.5986 1.49415C16.67 1.15008 16.3319 0.86305 16.0043 0.98976L0.549872 6.95161C0.168489 7.09869 0.171812 7.63865 0.554284 7.78198ZM5.5426 8.43928L12.9021 3.90654C13.0344 3.82532 13.1705 4.00416 13.0569 4.10951L6.98315 9.75535C6.76966 9.95407 6.63195 10.22 6.59294 10.5087L6.38604 12.042C6.35864 12.2467 6.07107 12.267 6.01457 12.0689L5.21885 9.27291C5.12772 8.95401 5.26053 8.61338 5.5426 8.43928Z" fill="#BD2D43"/>
</svg>
