<svg width="17" height="16" viewBox="0 0 17 16" fill="none" xmlns="http://www.w3.org/2000/svg">
<path fill-rule="evenodd" clip-rule="evenodd" d="M13.7745 2.3541C12.2925 0.863117 10.3215 0.0416459 8.22178 0.0407715C3.89506 0.0407715 0.373736 3.57917 0.371996 7.92816C0.371416 9.31839 0.73283 10.6755 1.41979 11.8717L0.306152 15.9591L4.46744 14.8622C5.61405 15.4907 6.90491 15.822 8.21858 15.8223H8.22187C12.5481 15.8223 16.0698 12.2837 16.0715 7.93447C16.0723 5.82672 15.2566 3.84499 13.7745 2.3541ZM8.22178 14.4902H8.21907C7.04839 14.4897 5.90024 14.1736 4.89837 13.5763L4.66023 13.4342L2.19086 14.0852L2.84997 11.6658L2.69479 11.4178C2.04167 10.3739 1.69679 9.16741 1.69737 7.92864C1.69873 4.31388 4.62562 1.373 8.22439 1.373C9.96706 1.37358 11.6052 2.05641 12.837 3.29566C14.0688 4.53491 14.7468 6.18213 14.7462 7.93398C14.7446 11.549 11.8179 14.4902 8.22178 14.4902V14.4902ZM11.8005 9.57994C11.6044 9.48123 10.6401 9.00457 10.4603 8.9387C10.2806 8.87292 10.1497 8.84018 10.0191 9.03741C9.88826 9.23464 9.51244 9.67865 9.39797 9.81011C9.28349 9.94166 9.16921 9.95817 8.97303 9.85946C8.77685 9.76085 8.14491 9.55264 7.39569 8.88118C6.81267 8.35857 6.41906 7.71314 6.30458 7.51591C6.1903 7.31849 6.30361 7.22211 6.39063 7.11368C6.60295 6.84873 6.81557 6.57096 6.88093 6.4395C6.94638 6.30795 6.91361 6.19282 6.86449 6.0942C6.81557 5.99559 6.42331 5.02546 6.25991 4.63071C6.10057 4.24655 5.93901 4.29843 5.81854 4.29241C5.70425 4.28667 5.57344 4.28551 5.44262 4.28551C5.3119 4.28551 5.09938 4.33477 4.91955 4.53219C4.73981 4.72952 4.23317 5.20627 4.23317 6.1764C4.23317 7.14652 4.93598 8.08371 5.03402 8.21526C5.13206 8.34681 6.41712 10.3376 8.3846 11.1912C8.85256 11.3945 9.21784 11.5156 9.50277 11.6065C9.97267 11.7565 10.4001 11.7353 10.7381 11.6846C11.115 11.6279 11.8985 11.2077 12.0621 10.7474C12.2255 10.287 12.2255 9.8924 12.1763 9.81011C12.1274 9.72791 11.9966 9.67865 11.8005 9.57994V9.57994Z" fill="#BD2D43"/>
</svg>
