<svg width="224" height="279" viewBox="0 0 224 279" fill="none" xmlns="http://www.w3.org/2000/svg">
<mask id="mask0" mask-type="alpha" maskUnits="userSpaceOnUse" x="0" y="0" width="224" height="279">
<rect x="0.211914" width="223.576" height="278.869" rx="30.0505" fill="#161615"/>
</mask>
<g mask="url(#mask0)">
<path d="M185.042 150.122C180.875 144.334 179.46 138.491 180.927 133.018C182.221 128.312 185.329 124.311 189.569 121.893C193.809 119.475 198.834 118.837 203.544 120.119C208.78 121.522 212.851 124.155 215.232 129.074C217.252 128.812 219.304 128.924 221.283 129.406C225.141 130.448 228.428 132.978 230.423 136.441C232.418 139.904 232.957 144.017 231.923 147.877C230.052 154.858 222.818 159.652 215.33 159.041C215.111 160.822 214.335 162.49 213.113 163.805C214.398 164.786 215.438 166.053 216.149 167.506C216.861 168.958 217.224 170.557 217.211 172.174L220.258 172.99C220.763 172.449 221.406 172.056 222.118 171.852C222.83 171.648 223.584 171.641 224.299 171.833L228.786 173.035C229.693 173.28 230.487 173.831 231.036 174.594C231.584 175.357 231.852 176.285 231.796 177.223L236.469 178.476C237.516 178.756 238.407 179.44 238.949 180.378C239.49 181.316 239.637 182.431 239.357 183.477L238.163 187.934C237.882 188.98 237.198 189.872 236.26 190.413C235.322 190.955 234.208 191.101 233.161 190.821L228.517 189.577C228.114 190.45 227.415 191.153 226.543 191.562C225.672 191.97 224.685 192.058 223.755 191.809L219.298 190.615C218.37 190.363 217.56 189.791 217.012 189.001C216.464 188.21 216.213 187.251 216.303 186.293L183.585 177.527C180.463 176.722 177.715 174.861 175.808 172.26C173.901 169.659 172.954 166.479 173.126 163.259C173.298 160.039 174.579 156.977 176.752 154.594C178.924 152.211 181.855 150.654 185.046 150.186L185.042 150.122ZM234.2 186.946L235.421 182.39L230.835 181.162L229.641 185.619L234.2 186.946ZM220.339 186.73L224.796 187.924C225.451 185.479 227.121 179.247 227.702 177.078L223.245 175.883L220.339 186.73ZM184.649 173.595L217.307 182.346L218.774 176.873L214.445 175.713C213.922 175.573 213.476 175.231 213.205 174.762C212.935 174.293 212.861 173.736 213.001 173.213C213.29 171.788 213.063 170.307 212.36 169.035C211.658 167.762 210.526 166.781 209.166 166.267C207.677 166.699 206.097 166.711 204.602 166.301C204.079 166.161 203.633 165.819 203.362 165.35C203.091 164.881 203.018 164.324 203.158 163.801C203.298 163.278 203.64 162.832 204.109 162.561C204.578 162.29 205.136 162.217 205.659 162.357C206.807 162.665 208.03 162.504 209.059 161.909C210.089 161.315 210.84 160.336 211.147 159.188C211.455 158.04 211.294 156.817 210.7 155.787C210.105 154.758 209.127 154.007 207.978 153.699C207.455 153.559 207.009 153.217 206.739 152.748C206.468 152.279 206.395 151.722 206.535 151.199C206.675 150.676 207.017 150.23 207.486 149.959C207.955 149.688 208.512 149.615 209.035 149.755C210.326 150.105 211.517 150.753 212.513 151.645C213.508 152.538 214.282 153.651 214.77 154.896C220.504 155.861 226.49 152.297 227.971 146.808C228.726 143.992 228.332 140.992 226.877 138.466C225.422 135.94 223.024 134.095 220.21 133.335C219.043 133.058 217.841 132.957 216.644 133.035C217.056 134.629 217.36 136.25 217.553 137.886C217.584 138.403 217.419 138.912 217.089 139.311C216.759 139.71 216.291 139.969 215.777 140.036C215.264 140.102 214.745 139.971 214.324 139.67C213.904 139.368 213.614 138.918 213.513 138.41C212.398 129.71 209.458 125.931 202.457 124.055C200.644 123.552 198.749 123.413 196.881 123.644C195.013 123.876 193.21 124.474 191.574 125.405C189.938 126.335 188.502 127.58 187.348 129.067C186.195 130.554 185.346 132.254 184.851 134.07C183.173 140.331 186.859 146.297 190.421 150.358C192.524 150.852 194.484 151.826 196.148 153.203C196.536 153.557 196.773 154.047 196.809 154.571C196.845 155.095 196.679 155.612 196.343 156.016C196.008 156.42 195.529 156.68 195.008 156.74C194.486 156.801 193.961 156.658 193.542 156.341C192.403 155.377 191.061 154.682 189.617 154.307C188.172 153.933 186.662 153.889 185.198 154.178C183.734 154.467 182.354 155.083 181.161 155.979C179.967 156.875 178.991 158.028 178.305 159.353C177.618 160.678 177.239 162.141 177.196 163.632C177.152 165.124 177.445 166.606 178.053 167.969C178.661 169.332 179.568 170.54 180.708 171.504C181.847 172.468 183.188 173.163 184.633 173.538" fill="#303030"/>
<path d="M223.616 192.29C224.589 192.553 225.621 192.487 226.552 192.102C227.483 191.716 228.26 191.034 228.763 190.16L233.013 191.299C234.188 191.614 235.44 191.45 236.494 190.843C237.548 190.236 238.319 189.235 238.636 188.061L239.838 183.574C240.153 182.402 239.989 181.152 239.383 180.1C238.777 179.048 237.779 178.28 236.607 177.963L232.318 176.814C232.285 175.831 231.939 174.885 231.33 174.113C230.721 173.341 229.881 172.785 228.933 172.525L224.466 171.328C223.713 171.125 222.92 171.118 222.162 171.307C221.405 171.496 220.709 171.875 220.139 172.409L217.753 171.77C217.71 170.226 217.339 168.709 216.666 167.318C215.993 165.928 215.032 164.697 213.848 163.706C214.835 162.509 215.492 161.075 215.755 159.545C223.402 159.956 230.51 155.044 232.414 147.977C233.459 143.996 232.887 139.763 230.825 136.202C228.762 132.64 225.375 130.038 221.403 128.962C219.483 128.496 217.497 128.368 215.533 128.584C213.244 124.071 209.458 121.238 203.67 119.687C198.835 118.381 193.68 119.042 189.332 121.528C184.984 124.013 181.797 128.12 180.47 132.949C179.033 138.313 180.317 144.131 184.208 149.803C181.582 150.342 179.157 151.599 177.203 153.434C175.249 155.268 173.842 157.609 173.138 160.195C172.635 162.037 172.507 163.961 172.761 165.853C173.014 167.745 173.644 169.568 174.614 171.212C176.549 174.544 179.723 176.975 183.444 177.975L215.757 186.633C215.757 187.643 216.09 188.625 216.705 189.426C217.319 190.227 218.181 190.803 219.157 191.063L223.624 192.26L223.616 192.29ZM228.229 188.918L228.036 189.321C227.689 190.086 227.081 190.702 226.321 191.059C225.561 191.417 224.699 191.493 223.888 191.274L219.421 190.077C218.607 189.858 217.896 189.357 217.416 188.664C216.937 187.97 216.718 187.129 216.801 186.289L216.84 185.866L183.708 176.989C181.984 176.531 180.366 175.738 178.948 174.654C177.53 173.571 176.34 172.218 175.445 170.674C174.547 169.144 173.964 167.451 173.729 165.693C173.494 163.935 173.613 162.148 174.077 160.437C174.77 157.905 176.187 155.632 178.155 153.894C180.122 152.157 182.554 151.033 185.152 150.658L185.979 150.531L185.492 149.862C181.434 144.22 180.093 138.459 181.503 133.194C182.752 128.629 185.757 124.743 189.862 122.387C193.967 120.031 198.838 119.397 203.409 120.622C209.03 122.128 212.643 124.892 214.773 129.289L214.929 129.616L215.288 129.575C217.243 129.334 219.225 129.443 221.142 129.896C224.871 130.901 228.048 133.345 229.975 136.692C231.903 140.038 232.422 144.013 231.42 147.742C229.61 154.497 222.69 159.142 215.364 158.521L214.866 158.483L214.811 158.965C214.613 160.643 213.885 162.214 212.733 163.449L212.347 163.864L212.794 164.205C214.026 165.134 215.023 166.338 215.706 167.721C216.388 169.105 216.738 170.628 216.726 172.171L216.714 172.569L220.452 173.571L220.661 173.341C221.103 172.868 221.666 172.524 222.289 172.346C222.912 172.169 223.571 172.164 224.197 172.334L228.654 173.528C229.447 173.743 230.142 174.225 230.622 174.892C231.101 175.56 231.336 176.372 231.286 177.193L231.257 177.618L236.335 178.979C237.245 179.225 238.021 179.823 238.491 180.64C238.961 181.458 239.088 182.428 238.844 183.339L237.65 187.796C237.403 188.709 236.803 189.487 235.984 189.959C235.164 190.43 234.19 190.558 233.277 190.313L228.218 188.958L228.229 188.918ZM225.181 188.461L228.351 176.628L222.908 175.17L219.738 187.002L225.181 188.461ZM227.101 177.35L224.459 187.21L220.978 186.278L223.62 176.417L227.101 177.35ZM234.555 187.517L236.013 182.073L230.442 180.581L228.983 186.024L234.555 187.517ZM234.765 182.785L233.833 186.266L230.224 185.299L231.154 181.828L234.765 182.785ZM217.662 182.916L219.403 176.418L214.582 175.126C214.386 175.076 214.204 174.987 214.044 174.864C213.884 174.742 213.751 174.588 213.653 174.412C213.552 174.24 213.486 174.05 213.459 173.852C213.432 173.654 213.445 173.453 213.496 173.261C213.813 171.715 213.57 170.106 212.81 168.723C212.049 167.34 210.822 166.273 209.347 165.712L209.179 165.668L209.017 165.719C207.633 166.111 206.17 166.124 204.78 165.757C204.586 165.707 204.404 165.618 204.245 165.497C204.086 165.375 203.952 165.224 203.852 165.05C203.752 164.877 203.688 164.686 203.662 164.487C203.637 164.289 203.651 164.087 203.704 163.894C203.809 163.504 204.064 163.17 204.413 162.967C204.763 162.763 205.178 162.707 205.57 162.809C206.847 163.148 208.206 162.968 209.351 162.309C210.496 161.649 211.334 160.564 211.681 159.289C212.023 158.011 211.845 156.649 211.186 155.502C210.527 154.355 209.44 153.515 208.164 153.168C207.968 153.118 207.786 153.029 207.626 152.906C207.466 152.783 207.333 152.629 207.235 152.454C207.134 152.282 207.068 152.091 207.041 151.894C207.014 151.696 207.027 151.495 207.078 151.302C207.183 150.91 207.44 150.575 207.792 150.372C208.143 150.169 208.561 150.114 208.954 150.219C210.164 150.556 211.281 151.168 212.216 152.007C213.152 152.846 213.881 153.89 214.347 155.057L214.454 155.329L214.73 155.403C220.8 156.416 226.97 152.637 228.496 146.98C229.289 144.032 228.879 140.891 227.356 138.245C225.833 135.6 223.323 133.667 220.376 132.872C219.162 132.584 217.912 132.477 216.667 132.555L216.035 132.586L216.198 133.201C216.601 134.774 216.9 136.372 217.093 137.985C217.12 138.183 217.106 138.385 217.055 138.579C217.003 138.772 216.913 138.954 216.791 139.112C216.669 139.271 216.517 139.404 216.343 139.504C216.17 139.604 215.978 139.668 215.779 139.694C215.376 139.744 214.969 139.635 214.645 139.39C214.488 139.268 214.356 139.116 214.257 138.942C214.158 138.769 214.095 138.578 214.071 138.38C212.909 129.423 209.918 125.557 202.634 123.595C198.842 122.565 194.797 123.079 191.384 125.025C187.971 126.97 185.468 130.189 184.422 133.976C182.67 140.514 186.543 146.688 190.101 150.727L190.208 150.84L190.366 150.882C192.395 151.356 194.285 152.296 195.886 153.63C196.195 153.891 196.392 154.261 196.433 154.664C196.452 154.863 196.431 155.064 196.371 155.255C196.311 155.446 196.213 155.623 196.083 155.775C195.957 155.932 195.8 156.062 195.622 156.156C195.444 156.25 195.249 156.307 195.048 156.322C194.849 156.341 194.648 156.32 194.457 156.26C194.266 156.2 194.089 156.102 193.937 155.972C192.575 154.843 190.949 154.076 189.211 153.744C187.472 153.411 185.678 153.523 183.995 154.069C182.331 154.586 180.824 155.516 179.615 156.772C178.407 158.028 177.535 159.569 177.082 161.252C176.383 163.932 176.772 166.779 178.164 169.173C179.555 171.567 181.837 173.314 184.511 174.033L217.662 182.916ZM218.153 177.14L216.94 181.666L184.775 173.047C182.348 172.408 180.273 170.833 179.005 168.667C177.737 166.501 177.38 163.92 178.011 161.491C178.422 159.975 179.208 158.587 180.298 157.456C181.388 156.326 182.746 155.489 184.246 155.024C185.766 154.53 187.386 154.427 188.955 154.726C190.525 155.025 191.994 155.715 193.226 156.732C193.745 157.164 194.415 157.372 195.087 157.311C195.76 157.249 196.38 156.923 196.812 156.404C197.244 155.885 197.453 155.215 197.391 154.543C197.329 153.87 197.003 153.25 196.484 152.818C194.805 151.417 192.826 150.421 190.701 149.905C187.337 146.055 183.774 140.26 185.391 134.225C186.362 130.696 188.693 127.695 191.874 125.883C195.054 124.07 198.823 123.593 202.355 124.556C209.159 126.379 211.955 130.024 213.039 138.484C213.068 138.827 213.167 139.16 213.328 139.464C213.49 139.768 213.712 140.036 213.98 140.253C214.248 140.469 214.557 140.628 214.888 140.722C215.22 140.815 215.567 140.841 215.908 140.797C216.25 140.753 216.579 140.64 216.875 140.465C217.172 140.291 217.431 140.058 217.635 139.781C217.839 139.504 217.986 139.188 218.065 138.853C218.144 138.518 218.155 138.17 218.096 137.831C217.917 136.386 217.659 134.951 217.324 133.534C218.258 133.513 219.19 133.614 220.097 133.833C222.781 134.558 225.067 136.318 226.455 138.726C227.843 141.135 228.218 143.996 227.498 146.681C226.135 151.769 220.632 155.188 215.165 154.41C214.615 153.152 213.789 152.033 212.749 151.136C211.709 150.239 210.481 149.587 209.156 149.227C208.502 149.052 207.806 149.144 207.219 149.482C206.633 149.821 206.205 150.378 206.03 151.032C205.855 151.686 205.947 152.382 206.285 152.969C206.624 153.555 207.181 153.982 207.835 154.158C208.852 154.433 209.719 155.101 210.245 156.014C210.771 156.928 210.913 158.013 210.64 159.031C210.365 160.046 209.699 160.91 208.788 161.435C207.877 161.96 206.795 162.101 205.779 161.829C205.125 161.654 204.429 161.746 203.843 162.084C203.257 162.423 202.829 162.98 202.654 163.634C202.478 164.288 202.57 164.984 202.909 165.57C203.247 166.157 203.804 166.584 204.458 166.759C205.983 167.171 207.589 167.175 209.116 166.771C210.317 167.261 211.311 168.154 211.926 169.297C212.542 170.439 212.741 171.76 212.49 173.033C212.402 173.356 212.378 173.693 212.421 174.025C212.464 174.357 212.572 174.677 212.738 174.967C212.905 175.258 213.128 175.512 213.393 175.716C213.658 175.92 213.961 176.07 214.284 176.156L218.153 177.14Z" fill="#161615"/>
<path d="M-5.65189 142.361C-6.95465 139.55 -7.20644 136.365 -6.36156 133.384C-6.07275 132.306 -5.63396 130.087 -4.30553 129.852C-3.61675 129.8 -2.92466 129.812 -2.23803 129.887C-1.01289 129.917 0.204595 129.951 1.41882 129.997C9.69242 130.284 17.9625 130.69 26.2291 131.213C30.3518 131.474 34.48 131.762 38.5989 132.158C41.2156 132.321 43.8165 132.677 46.3804 133.225C46.8967 133.356 47.6452 133.518 47.9584 133.972C48.9037 135.361 46.613 137.564 45.7334 138.328C43.4956 140.414 40.6694 141.759 37.6396 142.182C34.6622 142.539 31.3766 141.6 28.489 142.592C25.1698 143.74 24.1141 147.923 20.6641 149.075C20.098 149.276 19.4935 149.346 18.8963 149.28C18.2991 149.213 17.725 149.011 17.2172 148.69C15.6931 147.717 15.0254 145.922 13.661 144.765C10.7669 142.341 6.78567 142.715 3.26807 143.006C1.32026 143.178 -0.60983 143.381 -2.55623 143.379C-3.52942 143.378 -4.97959 143.437 -5.62139 142.538C-6.17129 141.781 -5.02619 140.874 -4.48397 141.636C-4.03364 142.256 -1.6907 141.917 -1.11241 141.89C0.724677 141.792 2.54813 141.599 4.38283 141.461C6.9881 141.257 9.72811 141.18 12.1882 142.196C13.2748 142.647 14.2648 143.302 15.1042 144.126C16.1844 145.181 16.8397 146.902 18.2317 147.593C21.1281 149.063 23.6257 144.683 25.2228 143.034C29.2061 138.922 35.5336 141.903 40.3744 139.968C41.7918 139.421 43.1154 138.657 44.2978 137.703C45.1693 136.885 45.9421 135.968 46.6004 134.971C47.0837 134.354 46.3464 134.974 46.8928 134.945C46.7466 134.958 46.909 134.885 46.8145 134.898C46.72 134.912 46.2748 134.708 46.1053 134.663C43.8624 134.17 41.5844 133.852 39.292 133.714C35.6395 133.345 31.9732 133.076 28.3125 132.835C20.5356 132.309 12.7351 131.92 4.94707 131.605C2.22385 131.498 -0.496135 131.379 -3.21903 131.344C-3.45768 131.338 -4.01412 131.332 -4.00968 131.34C-4.00525 131.347 -4.17806 131.314 -4.24391 131.342C-4.30977 131.37 -4.24391 131.342 -4.24391 131.342C-3.72182 131.041 -4.18802 131.545 -4.25086 131.755C-4.84155 133.693 -5.52119 135.406 -5.41183 137.493C-5.33781 138.996 -4.96724 140.469 -4.32147 141.829C-3.90534 142.673 -5.24871 143.255 -5.66484 142.41" fill="#303030"/>
<path d="M-20.0936 155.132C-19.3779 152.333 -17.7359 149.859 -15.4349 148.112C-14.4519 147.35 -12.3244 145.538 -10.9883 146.292C-9.45363 147.177 -8.05518 148.837 -6.79304 150.012C-0.57046 155.612 5.57151 161.304 11.6329 167.086C14.65 169.971 17.6562 172.873 20.5879 175.858C22.4719 177.624 24.2041 179.545 25.7665 181.601C26.1095 182.089 26.572 182.712 26.3306 183.323C25.7941 184.84 22.775 184.966 21.5369 184.985C18.6843 185.05 15.8708 184.311 13.4175 182.854C10.7688 181.21 8.8034 178.178 5.81967 177.106C4.05413 176.477 2.38406 177.042 0.625905 177.331C-0.767074 177.6 -2.20017 177.585 -3.58707 177.286C-6.55623 176.522 -6.88604 174.072 -6.72858 171.401C-6.43709 166.728 -9.81979 163.972 -13.3046 161.5C-15.0299 160.285 -16.8121 159.113 -18.416 157.736C-19.1987 157.072 -20.2339 156.236 -20.151 155.103C-20.088 154.166 -18.6466 154.358 -18.7095 155.295C-18.7724 156.232 -16.322 157.551 -15.8278 157.91C-14.2809 159.065 -12.6972 160.106 -11.1637 161.237C-8.97368 162.849 -6.79982 164.788 -5.84588 167.38C-5.36647 168.721 -5.18049 170.15 -5.30049 171.57C-5.38603 172.858 -5.6115 174.329 -4.49446 175.271C-2.52982 176.9 0.65491 175.696 2.83749 175.399C8.67643 174.607 11.5904 181.002 16.5993 182.727C18.8371 183.482 21.9383 183.995 24.2435 183.094C24.351 183.032 25.0113 182.651 25.0113 182.651C25.0113 182.651 24.8198 183.099 24.911 183.098C25.0023 183.096 24.6362 182.622 24.6052 182.568C23.2674 180.764 21.7721 179.082 20.1369 177.542C17.596 174.914 14.9553 172.344 12.3214 169.821C6.60948 164.325 0.788069 158.923 -5.07705 153.587C-7.08546 151.757 -9.09065 149.916 -11.1472 148.144C-11.3691 147.955 -11.614 147.779 -11.8249 147.573C-11.8758 147.515 -11.9381 147.467 -12.0081 147.433C-11.6468 147.563 -12.0039 147.636 -12.3671 147.805C-13.9149 148.517 -15.2893 149.557 -16.3953 150.853C-17.5012 152.149 -18.3123 153.67 -18.7722 155.311C-18.9925 156.206 -20.4097 156.021 -20.2135 155.119" fill="#303030"/>
<path d="M14.4762 139.227L14.4071 139.267C14.4839 139.222 14.5607 139.178 14.6451 139.129C14.7491 139.059 14.848 138.981 14.941 138.897C15.007 138.864 15.0711 138.827 15.133 138.786L15.2328 138.728C15.3633 138.653 15.1212 138.854 15.2328 138.728C15.3444 138.603 15.4778 138.444 15.5883 138.298C15.643 138.222 15.6926 138.142 15.7367 138.059C15.7367 138.059 15.6473 138.223 15.7367 138.059L15.8108 137.903L15.9206 137.615L15.9672 137.465C15.9129 137.619 15.9672 137.465 15.9672 137.465L16.0108 137.133L16.0179 136.985C16.0261 136.858 16.0179 136.985 16.0179 136.985L16.0119 136.886C16.0044 136.733 15.9846 136.58 15.9527 136.429L15.919 136.264C15.9589 136.333 15.8481 136.142 15.8348 136.119C15.7772 135.952 15.7078 135.791 15.627 135.634L15.4807 135.381L15.3654 135.181C15.2521 135.027 15.2019 134.835 15.2252 134.645C15.2485 134.454 15.3434 134.28 15.4906 134.157C15.6437 134.04 15.8368 133.987 16.0284 134.01C16.22 134.034 16.3948 134.131 16.515 134.282C16.8742 134.725 17.1375 135.237 17.2879 135.786C17.4384 136.336 17.4728 136.911 17.3889 137.475C17.3051 138.038 17.1048 138.578 16.8008 139.06C16.4969 139.542 16.0959 139.955 15.6234 140.274C15.4329 140.404 15.2327 140.52 15.0246 140.62C14.8474 140.696 14.6472 140.699 14.4679 140.628C14.2885 140.557 14.1449 140.417 14.0684 140.24C13.9919 140.063 13.9889 139.863 14.0601 139.683C14.1313 139.504 14.2708 139.36 14.4479 139.284" fill="#303030"/>
<path d="M-1.0068 166.951C-1.42797 166.948 -1.00681 166.951 -0.92235 166.902C-0.812331 166.892 -0.703231 166.873 -0.595993 166.846L-0.423517 166.808C-0.339061 166.76 -0.642063 166.873 -0.523332 166.866C-0.512886 166.855 -0.499562 166.847 -0.484929 166.844L-0.385137 166.786C-0.244756 166.736 -0.107656 166.678 0.0253505 166.611L0.125166 166.553C0.263367 166.473 -0.0360666 166.646 0.0791009 166.58L0.301765 166.451C0.370865 166.411 0.43997 166.371 0.494584 166.289C0.549198 166.206 0.364379 166.435 0.494584 166.289L0.587589 166.184C0.656689 166.144 0.698002 166.038 0.744938 165.96C0.791875 165.881 0.688267 166.074 0.744938 165.96L0.829942 165.788C0.878128 165.68 0.920607 165.57 0.957157 165.458C0.957157 165.458 0.97749 165.334 0.930002 165.536C0.941688 165.504 0.950362 165.472 0.955944 165.439L0.995757 165.242C1.01662 165.096 1.02772 164.95 1.02899 164.803L1.03841 164.695C1.01071 164.895 1.0783 164.764 1.03841 164.695C1.0388 164.602 1.03326 164.51 1.02179 164.418C1.00005 164.227 1.05257 164.036 1.16843 163.883C1.2843 163.731 1.45456 163.628 1.64382 163.598C1.73851 163.585 1.83486 163.591 1.92733 163.615C2.01981 163.639 2.10661 163.681 2.18275 163.739C2.2589 163.797 2.32292 163.869 2.37112 163.952C2.41932 164.034 2.45075 164.125 2.46365 164.22C2.536 164.869 2.4642 165.525 2.25338 166.143C2.07679 166.628 1.7802 167.06 1.39134 167.398C0.83006 167.871 0.145483 168.174 -0.581959 168.272C-0.776121 168.298 -0.97208 168.308 -1.16793 168.303C-1.26076 168.292 -1.35042 168.262 -1.43165 168.216C-1.51287 168.17 -1.58402 168.107 -1.64088 168.033C-1.76027 167.882 -1.81495 167.69 -1.79292 167.499C-1.77089 167.308 -1.67395 167.133 -1.52335 167.013C-1.36547 166.898 -1.17111 166.844 -0.976402 166.861" fill="#303030"/>
<path d="M41.8841 132.033C41.9366 132.036 41.9876 132.052 42.0324 132.08C42.0771 132.108 42.1143 132.146 42.1407 132.192C42.167 132.237 42.1816 132.289 42.1833 132.341C42.1849 132.394 42.1735 132.446 42.1501 132.493C40.5003 135.647 30.1033 155.459 26.5769 161.16C22.7392 167.368 15.8865 177.805 14.296 179.696C13.5652 180.576 12.5839 181.214 11.4824 181.525C11.0562 181.638 9.91887 180.82 10.0011 180.271C10.0833 179.722 11.4889 178.522 12.87 175.79C14.251 173.057 18.0689 166.85 18.0689 166.85L17.56 163.203L14.1109 170.722L11.2321 168.29C14.033 162.754 17.1452 157.383 20.5537 152.2C24.8743 146.03 28.9857 143.523 28.9857 143.523L38.9203 132.219C39.0312 132.095 39.1688 131.999 39.3227 131.936C39.4766 131.874 39.6427 131.848 39.8083 131.859L41.8841 132.033Z" fill="#303030"/>
<path d="M209.344 221.198L207.976 222.792L206.381 221.424C205.958 221.063 205.409 220.884 204.854 220.927C204.3 220.971 203.785 221.233 203.423 221.656C203.062 222.078 202.883 222.628 202.927 223.182C202.97 223.737 203.232 224.252 203.655 224.613L205.249 225.982L179.176 256.494L173.723 262.882L168.27 269.26C167.912 269.685 167.737 270.233 167.781 270.785C167.825 271.338 168.086 271.851 168.506 272.213C168.716 272.392 168.888 272.61 169.013 272.855C169.138 273.1 169.213 273.368 169.234 273.643C169.255 273.917 169.221 274.193 169.135 274.454C169.049 274.716 168.912 274.958 168.732 275.166C168.375 275.59 168.2 276.138 168.244 276.691C168.288 277.244 168.548 277.757 168.969 278.119L175.347 283.572L178.536 286.288C178.959 286.647 179.506 286.824 180.059 286.782C180.612 286.739 181.125 286.481 181.489 286.062C181.835 285.656 182.323 285.398 182.853 285.339C183.384 285.281 183.917 285.427 184.343 285.747L200.643 304.261C201.239 304.937 201.973 305.478 202.796 305.845C203.619 306.213 204.511 306.4 205.413 306.394C206.314 306.387 207.203 306.187 208.021 305.807C208.838 305.428 209.565 304.877 210.151 304.193L215.515 297.913C216.506 296.747 217.04 295.26 217.016 293.73C216.993 292.2 216.414 290.731 215.387 289.596L207.749 281.16L213.32 274.644C214.395 273.372 214.921 271.725 214.785 270.065C214.648 268.405 213.86 266.866 212.592 265.786L207.808 261.701L222.986 243.984C223.237 243.688 223.401 243.327 223.46 242.944C223.519 242.56 223.471 242.167 223.321 241.809L220.171 234.358L222.051 232.153C222.231 231.945 222.368 231.703 222.454 231.441C222.54 231.18 222.573 230.904 222.552 230.629C222.531 230.355 222.456 230.087 222.331 229.842C222.206 229.597 222.034 229.379 221.825 229.2L212.248 221.021C212.039 220.841 211.796 220.705 211.534 220.62C211.273 220.535 210.996 220.502 210.722 220.524C210.447 220.546 210.18 220.622 209.935 220.748C209.69 220.874 209.472 221.047 209.295 221.257L209.344 221.198ZM180.426 261.494L184.983 269.073L182.414 272.095L177.847 264.516L180.426 261.494ZM172.965 276.131C173.3 275.255 173.435 274.316 173.362 273.381C173.289 272.447 173.009 271.54 172.542 270.727L174.973 267.882L179.54 275.461L176.429 279.093L172.965 276.131ZM199.629 271.318L199.688 271.249C200.462 272.483 201.489 273.541 202.7 274.351C203.911 275.162 205.279 275.708 206.716 275.954L206.007 276.77C205.284 277.616 204.255 278.14 203.145 278.227C202.036 278.314 200.937 277.956 200.092 277.233C199.246 276.51 198.722 275.481 198.635 274.371C198.548 273.262 198.906 272.163 199.629 271.318ZM210.358 271.603C208.829 272.095 207.168 271.973 205.728 271.262C204.287 270.551 203.18 269.307 202.641 267.794L205.082 264.939L209.866 269.024C210.23 269.333 210.478 269.757 210.568 270.226C210.658 270.696 210.583 271.182 210.358 271.603ZM218.95 242.252L196.44 268.591C195.383 269.831 194.709 271.351 194.501 272.967C194.293 274.582 194.559 276.224 195.268 277.691C195.976 279.157 197.096 280.387 198.491 281.228C199.886 282.07 201.495 282.487 203.123 282.43L212.248 292.499C212.581 292.883 212.765 293.374 212.765 293.882C212.765 294.391 212.581 294.882 212.248 295.265L206.972 301.456C206.776 301.685 206.533 301.869 206.259 301.994C205.986 302.12 205.688 302.185 205.387 302.185C205.086 302.185 204.788 302.12 204.515 301.994C204.241 301.869 203.998 301.685 203.802 301.456C186.253 281.525 187.345 282.755 187.178 282.607C186.188 281.764 184.961 281.248 183.665 281.13C182.37 281.012 181.07 281.297 179.943 281.948L179.707 281.771L217.208 237.881L218.95 242.252ZM217.504 231.021L187.857 265.717L183.3 258.138L211.204 225.519L217.504 231.021Z" fill="#303030"/>
<path d="M205.378 306.909C204.413 306.909 203.459 306.704 202.58 306.307C201.701 305.91 200.917 305.33 200.279 304.606L184.019 286.141C183.693 285.909 183.293 285.806 182.896 285.853C182.499 285.901 182.134 286.095 181.873 286.397C181.653 286.656 181.383 286.87 181.081 287.025C180.778 287.18 180.447 287.274 180.108 287.302C179.769 287.329 179.428 287.289 179.104 287.185C178.78 287.08 178.48 286.913 178.221 286.692L168.644 278.513C168.124 278.065 167.802 277.43 167.749 276.746C167.695 276.062 167.914 275.384 168.359 274.861C168.634 274.535 168.771 274.115 168.743 273.69C168.725 273.48 168.667 273.275 168.571 273.088C168.474 272.9 168.342 272.734 168.182 272.597C167.67 272.15 167.354 271.521 167.301 270.844C167.247 270.167 167.461 269.496 167.896 268.975L204.561 226.06L203.33 224.987C203.07 224.769 202.856 224.5 202.7 224.198C202.545 223.895 202.451 223.565 202.425 223.226C202.374 222.538 202.597 221.859 203.045 221.336C203.492 220.816 204.128 220.494 204.812 220.44C205.496 220.387 206.173 220.606 206.697 221.05L207.917 222.094L208.96 220.873C209.408 220.353 210.043 220.031 210.727 219.978C211.412 219.924 212.089 220.143 212.612 220.588L222.179 228.767C222.44 228.986 222.654 229.254 222.809 229.557C222.965 229.859 223.059 230.19 223.085 230.529C223.136 231.216 222.913 231.895 222.465 232.419L220.782 234.387L223.813 241.563C224.003 242.004 224.064 242.49 223.991 242.965C223.918 243.44 223.713 243.885 223.4 244.25L208.537 261.632L212.957 265.402C214.311 266.57 215.152 268.224 215.298 270.007C215.443 271.789 214.881 273.558 213.734 274.93L208.409 281.17L215.752 289.291C216.859 290.514 217.483 292.098 217.508 293.748C217.533 295.398 216.958 297 215.89 298.257L210.525 304.527C209.894 305.266 209.111 305.861 208.23 306.272C207.348 306.683 206.389 306.9 205.417 306.909H205.368H205.378ZM183.084 284.852C183.649 284.854 184.198 285.041 184.649 285.383L184.717 285.442L201.007 303.956C201.557 304.581 202.234 305.081 202.993 305.421C203.752 305.761 204.576 305.934 205.408 305.927C206.24 305.921 207.061 305.735 207.815 305.383C208.569 305.031 209.238 304.521 209.777 303.888L215.142 297.618C216.055 296.543 216.547 295.172 216.525 293.762C216.503 292.351 215.97 290.997 215.024 289.95L207.09 281.19L212.947 274.3C213.942 273.127 214.434 271.609 214.316 270.076C214.198 268.542 213.48 267.117 212.317 266.111L207.149 261.701L222.652 243.571C222.844 243.344 222.97 243.069 223.015 242.775C223.06 242.482 223.023 242.181 222.908 241.907L219.64 234.171L221.717 231.74C221.856 231.58 221.961 231.394 222.027 231.193C222.093 230.992 222.118 230.779 222.101 230.568C222.064 230.145 221.862 229.752 221.539 229.476L211.972 221.296C211.813 221.158 211.627 221.053 211.426 220.987C211.226 220.921 211.014 220.895 210.803 220.911C210.593 220.928 210.387 220.986 210.199 221.083C210.011 221.179 209.845 221.312 209.708 221.474L208.025 223.442L206.057 221.759C205.896 221.622 205.711 221.518 205.51 221.453C205.31 221.387 205.098 221.362 204.888 221.379C204.678 221.395 204.473 221.453 204.285 221.549C204.097 221.644 203.93 221.776 203.793 221.936C203.656 222.096 203.552 222.282 203.487 222.483C203.421 222.683 203.396 222.895 203.413 223.105C203.429 223.315 203.487 223.52 203.582 223.708C203.678 223.896 203.81 224.063 203.97 224.2L205.939 225.883L168.634 269.546C168.36 269.871 168.224 270.29 168.258 270.714C168.291 271.138 168.49 271.532 168.811 271.81C169.332 272.257 169.654 272.893 169.707 273.577C169.76 274.261 169.541 274.938 169.097 275.461C168.822 275.786 168.687 276.206 168.72 276.63C168.753 277.054 168.952 277.447 169.274 277.725L178.851 285.905C179.01 286.042 179.194 286.146 179.394 286.21C179.593 286.275 179.804 286.298 180.013 286.279C180.225 286.265 180.432 286.208 180.622 286.112C180.811 286.015 180.979 285.881 181.115 285.718C181.358 285.433 181.66 285.204 182 285.048C182.34 284.892 182.709 284.811 183.084 284.812V284.852ZM205.368 302.677C204.995 302.68 204.626 302.602 204.287 302.449C203.947 302.296 203.644 302.072 203.399 301.791L193.487 290.541C187.975 284.281 186.981 283.149 186.873 283.05C185.96 282.265 184.826 281.783 183.627 281.671C182.428 281.558 181.224 281.82 180.18 282.42L179.875 282.597L178.959 281.81L217.346 236.946L219.6 242.281L196.893 268.857C195.886 270.02 195.242 271.452 195.039 272.976C194.837 274.501 195.086 276.052 195.755 277.437C196.424 278.822 197.484 279.98 198.804 280.77C200.124 281.559 201.646 281.945 203.183 281.879H203.409L212.691 292.115C213.102 292.591 213.329 293.199 213.329 293.828C213.329 294.457 213.102 295.065 212.691 295.541L207.326 301.811C207.084 302.097 206.783 302.327 206.443 302.485C206.103 302.643 205.733 302.725 205.358 302.726L205.368 302.677ZM183.074 280.619C184.693 280.618 186.26 281.194 187.493 282.243C187.582 282.302 187.582 282.302 194.226 289.852L204.157 301.141C204.313 301.311 204.501 301.447 204.711 301.542C204.921 301.637 205.147 301.688 205.378 301.693C205.608 301.69 205.836 301.637 206.045 301.539C206.254 301.44 206.439 301.298 206.588 301.122L211.953 294.852C212.21 294.558 212.352 294.18 212.352 293.789C212.352 293.398 212.21 293.02 211.953 292.726L202.986 282.824C200.838 282.861 198.753 282.103 197.129 280.698C196.24 279.942 195.509 279.018 194.978 277.979C194.447 276.94 194.127 275.806 194.035 274.642C193.944 273.479 194.083 272.309 194.445 271.2C194.807 270.09 195.385 269.063 196.145 268.178L218.459 242.065L217.061 238.758L180.997 280.964C181.68 280.738 182.394 280.621 183.113 280.619H183.074ZM176.558 279.635L172.463 276.131L172.581 275.806C172.889 274.999 173.013 274.133 172.945 273.271C172.877 272.41 172.618 271.575 172.188 270.825L172.02 270.52L175.121 266.888L180.219 275.363L176.558 279.635ZM173.605 275.835L176.43 278.247L178.989 275.294L174.963 268.601L173.192 270.668C174.005 272.279 174.153 274.145 173.605 275.865V275.835ZM202.868 278.611C201.973 278.609 201.098 278.351 200.346 277.868C199.594 277.385 198.995 276.696 198.622 275.883C198.248 275.071 198.115 274.169 198.237 273.283C198.36 272.397 198.734 271.565 199.314 270.885L199.807 270.304L200.161 270.875C200.903 272.045 201.882 273.048 203.035 273.817C204.187 274.587 205.488 275.107 206.854 275.343L207.71 275.491L206.441 276.977C206.041 277.446 205.553 277.83 205.003 278.109C204.454 278.388 203.856 278.555 203.242 278.601H202.868V278.611ZM199.728 271.967C199.218 272.761 199.03 273.719 199.202 274.646C199.375 275.574 199.895 276.4 200.657 276.957C201.418 277.513 202.363 277.758 203.299 277.641C204.235 277.524 205.091 277.054 205.693 276.328L205.86 276.131C203.39 275.508 201.218 274.033 199.728 271.967ZM182.395 272.804L177.296 264.339L180.554 260.53L185.653 268.995L182.395 272.804ZM178.457 264.437L182.483 271.131L184.432 268.975L180.406 262.292L178.457 264.437ZM208.458 272.312C207.082 272.312 205.74 271.885 204.617 271.09C203.494 270.295 202.645 269.171 202.188 267.873L202.09 267.597L205.043 264.152L210.21 268.562C210.654 268.948 210.955 269.473 211.064 270.052C211.173 270.631 211.084 271.229 210.811 271.751L210.712 271.928L210.525 271.987C209.86 272.199 209.166 272.308 208.468 272.312H208.458ZM203.222 267.804C203.75 269.095 204.736 270.147 205.991 270.757C207.246 271.367 208.681 271.493 210.023 271.111C210.138 270.8 210.157 270.462 210.076 270.14C209.995 269.819 209.819 269.529 209.571 269.31L205.151 265.54L203.222 267.804ZM187.808 266.465L182.71 258L211.086 224.791L218.213 230.883L187.808 266.465ZM183.92 258.099L187.946 264.782L216.825 230.992L211.205 226.208L183.92 258.099Z" fill="#161615"/>
<path d="M3.40056 242.045C3.42307 241.787 3.95071 235.707 9.1838 232.043C14.0729 228.621 16.123 227.021 16.1433 227.003L17.3864 226.041L17.498 227.622C17.5493 228.507 17.68 229.386 17.8882 230.248L18.0966 230.397C22.7585 233.671 25.3728 239.375 25.8658 247.351L25.8942 247.824C26.657 260.177 27.0843 266.979 30.1585 268.361C33.2326 269.744 36.6377 267.343 36.6835 267.317L36.9816 267.102L37.3435 267.199C39.2415 267.614 47.2522 276.371 49.5956 280.567C50.3542 281.934 50.5805 282.856 50.347 283.554C50.2667 283.755 50.1402 283.935 49.9777 284.079C49.8152 284.223 49.6213 284.326 49.4115 284.381C45.5434 285.672 20.9898 278.085 17.1737 275.534C14.7775 273.938 15.1516 270.283 15.5955 266.05C16.0052 262.118 16.4618 257.663 14.7615 254.251C11.3236 247.364 3.87834 242.925 3.84073 242.892L3.38538 242.623L3.40056 242.045ZM17.2819 266.183C16.8981 269.874 16.5718 273.061 18.1177 274.096C22.4875 277.012 45.7516 283.564 48.7675 282.789C48.6502 281.982 47.3117 279.536 43.7137 275.361C41.8051 273.006 39.6602 270.853 37.3125 268.936C36.1536 269.642 32.848 271.324 29.5513 269.874C25.5257 268.105 25.1066 261.36 24.2837 247.928L24.2481 247.453C23.7878 240.021 21.4443 234.754 17.1918 231.776C16.9767 231.647 16.7846 231.483 16.6237 231.29C16.2912 230.66 16.0936 229.968 16.0435 229.257C14.9502 230.066 13.0713 231.432 10.1982 233.44C7.51924 235.435 5.7238 238.397 5.19328 241.695C6.96829 242.83 13.1351 247.089 16.3269 253.476C16.7534 254.339 17.0743 255.251 17.2828 256.191C18.0247 259.416 17.6613 262.972 17.3253 266.195" fill="#303030"/>
<path d="M-0.155648 265.103C0.482525 263.022 1.01494 260.909 1.43956 258.773C2.67711 252.418 2.51766 250.117 2.4189 248.749C2.39088 248.361 2.37102 248.03 2.37816 247.714C2.39595 245.439 2.88427 243.193 3.81245 241.116L4.21788 240.356L4.96701 240.774C7.05243 241.969 9.01717 243.363 10.8337 244.937C13.7153 247.501 13.4446 249.438 13.4048 249.644L13.2884 250.079L12.8837 250.257C12.8837 250.257 9.19089 251.936 7.30109 258.381C6.76503 260.208 6.33133 262 5.96255 263.608C5.06788 267.411 4.41967 270.177 2.87056 271.065C2.59085 271.229 2.27964 271.332 1.95732 271.368C1.635 271.403 1.30887 271.37 1.0003 271.27C0.652621 271.191 0.324811 271.042 0.0370151 270.831C-0.25078 270.621 -0.492473 270.353 -0.673232 270.046C-0.772695 269.865 -0.84593 269.67 -0.890732 269.468C-1.12796 268.442 -0.736321 267.097 -0.14983 265.082L-0.155648 265.103ZM11.6876 248.959C11.3267 247.843 10.6334 246.865 9.70079 246.154C8.21585 244.869 6.62725 243.709 4.95122 242.686C4.40205 244.31 4.10378 246.009 4.06666 247.724C4.06392 247.995 4.08095 248.279 4.11001 248.605C4.20721 250.066 4.3771 252.501 3.09778 259.07C2.56448 261.813 1.95525 263.885 1.46909 265.554C0.944668 267.338 0.540873 268.758 0.796117 269.253C0.964827 269.46 1.2037 269.599 1.46758 269.642C1.55618 269.68 1.65257 269.697 1.74878 269.69C1.84499 269.683 1.93823 269.654 2.0208 269.604C2.93858 269.074 3.61732 266.223 4.32372 263.239C4.70168 261.626 5.13059 259.793 5.67829 257.923C7.38488 252.104 10.4345 249.756 11.6741 249.01L11.6876 248.959Z" fill="#303030"/>
<path d="M190.908 17.9716C191.102 16.2923 191.612 14.6651 192.413 13.1764C192.616 12.7211 192.917 12.3159 193.293 11.9895C193.67 11.663 194.114 11.4232 194.593 11.2871C194.827 11.2546 195.065 11.2561 195.299 11.2914C195.476 11.3213 195.65 11.3671 195.819 11.4282C196.043 11.4924 195.819 11.4282 195.982 11.5226C196.39 11.7226 196.764 11.983 197.094 12.2951C199.075 14.2617 200.608 16.6329 201.588 19.2465C202.125 20.4593 202.505 21.7363 202.716 23.046C202.791 23.5293 202.804 24.0199 202.755 24.5064C202.729 24.8039 202.621 25.0883 202.444 25.3288C202.557 25.1327 202.401 25.4023 202.324 25.423C202.495 25.315 202.22 25.4717 202.176 25.4902C202.302 25.4428 201.767 25.6136 201.651 25.6447C201.372 25.7201 201.084 25.7624 200.794 25.7707C199.934 25.7993 199.092 25.5145 198.425 24.9692C197.635 24.3331 197.017 23.5083 196.629 22.5708C196.19 21.4456 194.466 22.4114 194.977 23.5451C196.249 26.5882 199.559 28.5324 202.779 27.3521C205.535 26.3511 204.804 22.6938 204.152 20.5204C203.171 17.2884 201.512 14.3028 199.285 11.7631C198.457 10.7296 197.346 9.95952 196.088 9.54683C195.358 9.35709 194.591 9.36354 193.864 9.56556C193.137 9.76758 192.477 10.158 191.949 10.6973C190.206 12.4142 189.365 15.1741 189.073 17.5656C189.016 17.813 189.057 18.0728 189.186 18.2914C189.315 18.5099 189.523 18.6705 189.768 18.7399C189.89 18.7744 190.019 18.7837 190.145 18.7672C190.272 18.7507 190.393 18.7087 190.503 18.6438C190.613 18.5789 190.708 18.4924 190.784 18.3896C190.859 18.2867 190.913 18.1696 190.942 18.0454" fill="#303030"/>
<path d="M189.142 27.3322C190.143 29.1371 191.381 30.8004 192.822 32.278C193.713 33.2882 194.88 34.015 196.179 34.3687C196.792 34.5081 197.432 34.4536 198.012 34.2128C198.592 33.972 199.083 33.5568 199.417 33.0247C199.968 31.8957 200.098 30.6071 199.783 29.3909C199.489 27.8871 199.003 26.4275 198.336 25.0482C197.728 23.687 197.002 22.3819 196.165 21.1481C195.572 20.1079 194.718 19.2396 193.688 18.6285C192.874 18.2671 191.988 18.0978 191.098 18.1338C190.209 18.1698 189.339 18.4101 188.557 18.8361C187.576 19.3752 186.732 20.1331 186.09 21.051C185.449 21.969 185.027 23.0223 184.859 24.1294C184.638 25.3418 186.506 25.8427 186.752 24.6234C186.857 23.8283 187.134 23.0656 187.563 22.3879C187.991 21.7102 188.562 21.1337 189.236 20.6984C189.75 20.3689 190.332 20.1616 190.939 20.0925C191.545 20.0234 192.159 20.0943 192.734 20.2998C193.444 20.7134 194.033 21.3053 194.444 22.0168C195.149 23.0559 195.776 24.1459 196.319 25.2779C196.904 26.4388 197.374 27.6547 197.72 28.9078C198.018 29.8005 198.093 30.7525 197.938 31.6807C197.914 31.8164 197.864 31.946 197.789 32.0618C197.715 32.1775 197.617 32.2771 197.504 32.3547C197.39 32.4322 197.262 32.486 197.126 32.5131C196.991 32.5401 196.852 32.5396 196.717 32.5119C195.751 32.2473 194.889 31.6925 194.247 30.9224C192.926 29.5705 191.795 28.0453 190.885 26.3887C190.756 26.1697 190.545 26.0109 190.299 25.9474C190.052 25.8839 189.791 25.9208 189.572 26.05C189.353 26.1792 189.194 26.3901 189.131 26.6363C189.067 26.8826 189.104 27.144 189.233 27.363" fill="#303030"/>
<path d="M219.123 18.5323C215.075 14.7139 211.038 10.8581 206.863 7.1843C205.085 5.62371 202.866 3.78737 200.393 3.73189C196.161 3.68497 195.937 9.67701 197.299 12.4678C198.141 14.2173 199.645 15.3472 200.998 16.6836C202.35 18.02 202.566 20.2686 202.73 22.0408C202.825 23.2722 204.76 23.2784 204.64 22.054C204.564 20.2476 204.167 18.4692 203.467 16.8023C202.799 15.708 201.928 14.7508 200.902 13.9815C200.21 13.4151 199.638 12.7165 199.219 11.9266C198.8 11.1366 198.542 10.2711 198.461 9.38053C198.413 8.06751 198.623 5.62887 200.408 5.66841C201.651 5.83886 202.822 6.3526 203.789 7.15188C204.471 7.65642 205.126 8.19799 205.749 8.77413C208.093 10.8462 210.382 12.9953 212.671 15.1233L217.748 19.8951C218.652 20.7439 220.031 19.394 219.132 18.5159" fill="#303030"/>
<path d="M203.569 -0.447216L205.852 -0.403129L206.181 -0.387616C206.307 -0.386441 206.432 -0.410082 206.549 -0.457181C206.665 -0.504281 206.772 -0.573917 206.862 -0.662121C206.952 -0.750325 207.023 -0.855371 207.072 -0.97125C207.122 -1.08713 207.148 -1.21159 207.149 -1.3375C207.15 -1.46341 207.126 -1.58832 207.079 -1.7051C207.032 -1.82188 206.963 -1.92824 206.874 -2.01811C206.786 -2.10797 206.681 -2.17958 206.565 -2.22885C206.449 -2.27812 206.325 -2.30409 206.199 -2.30526L203.907 -2.35409L203.578 -2.36959C203.452 -2.37076 203.327 -2.34712 203.211 -2.30002C203.094 -2.25292 202.988 -2.18328 202.898 -2.09508C202.808 -2.00688 202.736 -1.90184 202.687 -1.78596C202.638 -1.67008 202.612 -1.54563 202.611 -1.41971C202.609 -1.2938 202.633 -1.16889 202.68 -1.05211C202.727 -0.935327 202.797 -0.828973 202.885 -0.739107C202.973 -0.649241 203.078 -0.577632 203.194 -0.528361C203.31 -0.479089 203.434 -0.453113 203.56 -0.451937" fill="#303030"/>
<path d="M187.567 31.2485C188.58 30.8529 189.597 30.449 190.618 30.0581L191.051 29.8939C191.293 29.8151 191.499 29.6521 191.632 29.4343C191.757 29.2176 191.791 28.9601 191.726 28.7185C191.661 28.4768 191.503 28.2708 191.287 28.1457C191.177 28.0819 191.057 28.0406 190.931 28.0244C190.806 28.0081 190.679 28.0173 190.557 28.0512C189.536 28.4421 188.523 28.8378 187.506 29.2416C187.359 29.2877 187.216 29.3468 187.073 29.4058C186.83 29.4775 186.622 29.6366 186.489 29.8525C186.364 30.0692 186.33 30.3267 186.394 30.5683C186.459 30.81 186.617 31.016 186.834 31.1411C186.944 31.2068 187.066 31.2495 187.193 31.2666C187.32 31.2837 187.449 31.2747 187.572 31.2403" fill="#303030"/>
<path d="M208.281 14.1793L209.858 12.072C209.919 11.9658 209.985 11.8514 210.087 11.7688C210.151 11.6597 210.192 11.5389 210.208 11.4136C210.225 11.2882 210.215 11.1609 210.182 11.0391C210.15 10.9152 210.093 10.799 210.015 10.6977C209.937 10.5963 209.839 10.512 209.727 10.4497C209.618 10.3859 209.497 10.3446 209.371 10.3284C209.246 10.3122 209.119 10.3213 208.997 10.3552C208.756 10.4307 208.549 10.5889 208.412 10.8019L206.831 12.9174L206.607 13.2124C206.543 13.3215 206.502 13.4423 206.485 13.5677C206.469 13.693 206.478 13.8203 206.512 13.9421C206.542 14.0665 206.597 14.1835 206.674 14.286C206.75 14.3885 206.847 14.4743 206.958 14.5383C207.068 14.6023 207.191 14.6431 207.318 14.6581C207.445 14.6732 207.574 14.6623 207.697 14.626C207.935 14.5445 208.14 14.3877 208.281 14.1793Z" fill="#303030"/>
<path d="M204.026 2.55137L206.799 2.25715L207.195 2.21328C207.446 2.20853 207.686 2.10979 207.867 1.93663C207.96 1.84727 208.034 1.7397 208.084 1.62056C208.134 1.50143 208.159 1.37329 208.158 1.24408C208.158 1.1194 208.134 0.995834 208.087 0.880544C208.039 0.765254 207.969 0.660531 207.881 0.572413C207.792 0.479075 207.684 0.405083 207.565 0.355039C207.446 0.304996 207.318 0.27997 207.189 0.281497L204.415 0.575696L204.02 0.619568C203.77 0.627845 203.531 0.726087 203.348 0.896221C203.255 0.983331 203.18 1.08842 203.129 1.20514C203.078 1.32185 203.05 1.44777 203.049 1.57529C203.048 1.7028 203.072 1.82925 203.121 1.94702C203.17 2.06478 203.242 2.1714 203.334 2.26044C203.423 2.35377 203.531 2.42777 203.65 2.47781C203.769 2.52785 203.897 2.55289 204.026 2.55137Z" fill="#303030"/>
<path d="M180.378 24.2114L181.666 23.8661L181.855 23.8225C181.976 23.7922 182.088 23.7338 182.182 23.652C182.289 23.5779 182.379 23.4808 182.444 23.3677C182.509 23.2577 182.547 23.134 182.555 23.0066C182.583 22.8846 182.578 22.757 182.539 22.638C182.509 22.5136 182.454 22.3965 182.377 22.2941C182.301 22.1916 182.204 22.1057 182.093 22.0417C181.982 21.9778 181.86 21.937 181.733 21.9219C181.606 21.9068 181.477 21.9178 181.354 21.954L180.066 22.2993L179.872 22.3511C179.75 22.3767 179.636 22.4357 179.545 22.5217C179.439 22.593 179.351 22.6874 179.288 22.7978C179.224 22.9082 179.186 23.0317 179.177 23.1589C179.148 23.2809 179.154 23.4084 179.193 23.5275C179.223 23.6519 179.278 23.7689 179.355 23.8714C179.431 23.9739 179.528 24.0598 179.639 24.1237C179.749 24.1877 179.872 24.2285 179.999 24.2436C180.126 24.2586 180.255 24.2477 180.378 24.2114Z" fill="#303030"/>
<path d="M200.667 4.65283C200.667 4.65283 200.173 7.7548 201.562 8.76372C202.951 9.77264 204.825 7.69595 204.825 7.69595L200.667 4.65283Z" fill="#303030"/>
<path d="M201.738 21.4573L198.087 23.2161C198.087 23.2161 199.181 25.2639 200.99 24.6962C202.144 24.3387 201.763 21.4715 201.763 21.4715" fill="#303030"/>
<path d="M196.615 28.4444L194.142 30.2189C194.142 30.2189 195.696 32.2817 197.15 31.0081C197.84 30.4156 196.615 28.4444 196.615 28.4444Z" fill="#303030"/>
<path d="M228.367 47.8766C226.712 46.6488 224.036 46.5855 222.09 46.6926C219.261 46.8882 216.477 47.5016 213.828 48.5127C210.709 49.5534 207.739 50.9946 204.992 52.8002C203.189 54.036 200.979 55.8643 201.066 58.2785C201.106 59.5108 203.042 59.5171 202.976 58.2917C203.03 57.7911 203.188 57.3074 203.44 56.8713C203.692 56.4353 204.031 56.0565 204.438 55.7592C205.576 54.7375 206.838 53.8633 208.195 53.1573C211.572 51.2744 215.209 49.9019 218.988 49.0844C221.144 48.5563 223.388 48.4894 225.572 48.8879C226.235 48.9731 226.869 49.2123 227.423 49.5865C228.422 50.3269 229.381 48.6475 228.366 47.9526" fill="#303030"/>
<path d="M213.18 53.0506C209.984 54.4732 207.706 56.2298 208.051 57.0282C208.396 57.8265 211.267 57.3268 214.448 55.9287C217.63 54.5306 219.914 52.7448 219.564 51.9546C219.214 51.1644 216.353 51.6478 213.18 53.0506Z" fill="#303030"/>
<path d="M215.115 53.6234L216.918 60.9712C216.97 61.1792 217.091 61.3635 217.261 61.4935C217.432 61.6236 217.641 61.6917 217.856 61.6867C218.333 61.6845 218.81 61.74 219.274 61.8522C219.63 61.916 219.976 62.0277 220.302 62.1844C220.426 62.2336 220.541 62.3003 220.645 62.3825C220.744 62.4391 220.752 62.4438 220.731 62.5736C220.684 63.0959 220.505 63.5976 220.21 64.0316C219.916 64.4657 219.516 64.8177 219.048 65.0548C218.974 65.0884 218.872 65.0949 218.91 65.1056C218.72 65.0132 218.557 64.874 218.435 64.701C218.23 64.4686 218.047 64.2171 217.889 63.9498C217.81 63.7956 217.689 63.6663 217.541 63.576C217.393 63.4858 217.223 63.4381 217.05 63.4381C216.876 63.4382 216.706 63.4861 216.558 63.5764C216.41 63.6668 216.29 63.7963 216.211 63.9505C216.032 64.3078 215.832 64.6543 215.612 64.988C215.326 65.494 214.927 65.9271 214.446 66.2535C214.474 66.2045 214.446 66.2535 214.446 66.2535C214.446 66.2535 214.345 66.1079 214.446 66.2535C214.547 66.399 214.339 66.1922 214.323 66.1827C213.951 65.8525 213.685 65.4187 213.561 64.9367C213.487 64.6994 213.51 64.4426 213.625 64.2221C213.507 64.4264 213.798 64.093 213.842 64.0534C213.887 64.0138 214.091 63.8486 214.219 63.7591C214.347 63.6571 214.481 63.5635 214.621 63.4789C214.802 63.369 214.944 63.2044 215.025 63.0088C215.107 62.8131 215.124 62.5966 215.075 62.3904L212.45 55.0694C212.034 53.9033 210.17 54.3958 210.595 55.5666L213.266 62.8059C213.419 62.4474 213.568 62.076 213.721 61.7175C212.574 62.439 211.538 63.2897 211.657 64.7633C211.769 66.059 212.722 67.7856 214.099 68.0796C215.886 68.4573 217.234 66.1969 217.887 64.8203L216.214 64.8128C216.867 65.9086 217.928 67.1641 219.369 66.8955C221.08 66.5545 222.301 64.7218 222.638 63.1191C223.16 60.4795 219.885 59.7757 217.913 59.7377L218.859 60.458L217.056 53.1101C216.753 51.9001 214.892 52.4055 215.188 53.6108" fill="#303030"/>
<path d="M213.837 54.4216C215.447 53.7781 217.145 53.3813 218.874 53.2448C219.152 52.9699 219.281 52.7282 219.216 52.5384C218.965 51.8598 216.226 52.2279 213.09 53.3582C209.953 54.4886 207.616 55.9712 207.862 56.6579C207.945 56.8911 208.332 56.9947 208.92 56.9961C210.384 55.8352 212.046 54.9498 213.827 54.383" fill="#303030"/>
<path d="M200.14 4.92548C200.346 6.1339 202.202 5.63669 202.008 4.42482C201.284 0.196846 201.038 -4.09939 201.277 -8.38238C201.436 -10.7522 201.656 -14.699 203.802 -16.303C206.424 -18.2968 207.355 -12.3452 207.797 -10.6197C209.631 -3.28702 209.726 4.90498 212.952 11.7887C214.684 15.4681 218.03 18.6527 219.179 22.5295C219.881 24.9172 219.704 27.4508 220.491 29.8225C222.15 34.778 223.951 39.6956 225.662 44.6374C226.526 47.1405 227.534 49.1493 225.36 51.4996C223.106 53.8054 220.38 55.5979 217.37 56.755L218.106 58.7813C222.228 57.0762 225.964 54.6041 227.908 51.3694C229.243 49.0574 228.533 47.0792 227.739 44.8128L224.295 34.8941C223.371 32.6081 222.604 30.2619 221.999 27.8717C221.608 25.9253 221.651 23.9458 221.104 22.0069C220.483 19.8185 219.19 18.1898 217.92 16.3343C214.978 11.9752 213.041 7.01757 212.249 1.81907C211.432 -2.87884 210.694 -7.61853 209.456 -12.2107C208.915 -14.1788 208.021 -18.6489 205.371 -18.9263C202.721 -19.2037 200.939 -15.8535 200.292 -13.7328C198.523 -7.91375 199.267 -1.01412 200.221 4.91765" fill="#303030"/>
<path d="M212.259 58.5322C209.956 59.3304 207.534 59.7295 205.097 59.7125C202.185 59.5673 202.074 55.0808 201.217 52.8106C199.738 48.9393 197.312 46.1987 194.164 43.5755C190.814 40.7372 186.102 38.1257 183.548 34.4942C180.78 30.554 178.884 24.9503 177.541 20.3729C177.121 18.9108 175.848 11.2483 179.274 15.0885C181.78 17.8972 182.872 21.8932 184.675 25.1458C184.805 25.3648 185.016 25.5236 185.262 25.5871C185.508 25.6506 185.769 25.6137 185.988 25.4845C186.207 25.3553 186.366 25.1444 186.43 24.8981C186.493 24.6519 186.456 24.3905 186.327 24.1714C185.134 22.0121 179.766 7.59528 175.489 13.1539C174.091 14.9718 174.904 18.034 175.42 20.009C176.369 23.3948 177.611 26.692 179.131 29.8633C179.881 31.7833 180.783 33.6407 181.827 35.4179C184.655 39.7082 190.243 42.6512 194.029 46.0355C196.355 47.9815 198.165 50.4707 199.3 53.2829C200.01 55.109 200.378 57.0752 201.069 58.879C202.073 61.4412 203.845 61.7674 206.487 61.5498C208.68 61.3736 210.853 61.0106 212.984 60.4648L212.259 58.5322Z" fill="#303030"/>
<path d="M3.10292 29.3672C3.10292 29.3672 -3.90654 15.777 -1.55128 9.43848C0.803991 3.1 6.82805 0.669074 11.4093 0.530578C15.9905 0.392082 22.3621 3.17207 25.2486 1.86421C28.135 0.556359 35.7299 -2.0333 43.3027 1.5038C50.8755 5.0409 53.8106 9.2963 55.9522 15.2567C58.0938 21.2171 5.55494 32.5723 5.55494 32.5723L3.10292 29.3672Z" fill="#B63847"/>
<path d="M52.4196 18.8555C46.6804 8.72644 33.3361 9.99286 28.3149 10.5215C23.2937 11.0502 16.4061 10.1832 12.7161 14.7012C9.02597 19.2193 10.48 30.5167 10.48 30.5167L30.2559 30.2596L52.4196 18.8555Z" fill="#161615"/>
<path d="M44.7666 17.014C43.9124 16.2345 42.7065 13.0888 43.2541 11.3691C43.3395 11.0507 43.519 10.7656 43.7692 10.551C44.0194 10.3365 44.3285 10.2024 44.6562 10.1665C45.1725 10.0988 46.1616 10.8925 46.8596 11.6534C47.5575 12.4142 48.83 14.0396 48.4543 15.7234C48.1404 17.1486 47.454 17.6351 46.9886 17.7799C46.5884 17.8614 46.1739 17.8371 45.786 17.7094C45.3981 17.5817 45.0502 17.355 44.7767 17.0516L44.7666 17.014ZM43.8667 11.5478C43.3791 13.0397 44.4767 15.9321 45.2229 16.6094C45.4199 16.8365 45.6722 17.0088 45.9554 17.1096C46.2386 17.2104 46.5431 17.2363 46.8392 17.1847C47.3567 17.046 47.7249 16.4634 47.9271 15.5621C47.9684 14.9955 47.8923 14.4264 47.7036 13.8906C47.5148 13.3547 47.2176 12.8635 46.8304 12.4477C46.3154 11.7109 45.6153 11.1229 44.8006 10.7429C44.5854 10.7615 44.3816 10.8478 44.2185 10.9893C44.0553 11.1308 43.9412 11.3204 43.8924 11.5308" fill="#FBFBF2"/>
<path d="M47.0795 18.1181C46.6189 18.2181 46.14 18.1953 45.691 18.0519C45.242 17.9085 44.8385 17.6496 44.5212 17.3011C43.6135 16.4351 42.2927 13.1992 42.9447 11.2296C43.0426 10.841 43.2579 10.4921 43.5613 10.2303C43.8647 9.96856 44.2414 9.80675 44.6401 9.76692C45.536 9.64789 46.8879 11.0805 47.1549 11.3619C47.8001 12.0764 49.2604 13.9136 48.8378 15.7613C48.4821 17.3691 47.6904 17.914 47.0839 18.0967L47.0795 18.1181ZM44.2063 11.6478C43.7794 12.9521 44.7947 15.7253 45.4668 16.3519C45.9015 16.7699 46.408 16.9669 46.7204 16.853C47.0327 16.739 47.3979 16.258 47.5695 15.5062C47.5956 14.9924 47.5174 14.4787 47.3395 13.9961C47.1617 13.5134 46.8879 13.0718 46.5347 12.6978C46.0654 12.0669 45.471 11.5397 44.7886 11.1489C44.6564 11.1652 44.5313 11.2178 44.4272 11.3009C44.3231 11.384 44.244 11.4943 44.1988 11.6196L44.2063 11.6478Z" fill="#303030"/>
<path d="M39.3944 18.8664C37.9286 18.2508 37.4942 14.8984 37.6548 12.7882C37.6906 12.3361 37.7003 11.8823 37.6839 11.4291C37.6851 9.81543 37.6712 8.14526 39.5152 7.65116C41.2275 7.19235 43.9786 10.7609 44.9323 12.8146C45.2947 13.4483 45.5238 14.1495 45.6055 14.8749C45.6872 15.6004 45.6197 16.3349 45.4073 17.0334C45.2646 17.3866 45.046 17.7042 44.767 17.9637C44.488 18.2231 44.1555 18.4181 43.7928 18.5349C43.3224 18.6609 42.8671 18.8434 42.519 18.9367C41.4688 19.2955 40.3265 19.2771 39.2884 18.8847L39.3944 18.8664ZM39.5869 8.25715C38.2603 8.61261 38.1982 9.69812 38.2016 11.4417C38.2046 11.9047 38.2102 12.3772 38.1756 12.8503C38.0033 15.1048 38.5281 17.9288 39.5318 18.3254C40.6718 18.8165 41.8372 18.5749 43.6083 17.9591C43.8835 17.8693 44.1353 17.7194 44.3453 17.5201C44.5553 17.3208 44.7182 17.0772 44.8222 16.807C45.0007 16.1882 45.0526 15.5399 44.9748 14.9006C44.8971 14.2613 44.6913 13.6443 44.3698 13.0863C43.215 10.7336 40.697 7.95968 39.6057 8.25211" fill="#FBFBF2"/>
<path d="M42.7233 19.2855C41.5903 19.6676 40.3593 19.6407 39.2442 19.2093C37.4457 18.4812 37.148 14.5476 37.2858 12.7662C37.321 12.3333 37.3205 11.8796 37.3156 11.4474C37.3099 9.84557 37.305 7.87047 39.4125 7.30578C41.5199 6.7411 44.3228 10.5782 45.3097 12.6431C45.6996 13.3231 45.9442 14.0766 46.0281 14.856C46.1119 15.6354 46.0333 16.4237 45.797 17.1712C45.6398 17.5655 45.3986 17.9208 45.0901 18.2124C44.7817 18.5041 44.4134 18.725 44.0109 18.8598C43.531 18.9884 43.0852 19.1684 42.7088 19.2692L42.7233 19.2855ZM39.7579 8.59471C38.7418 8.86697 38.6436 9.6294 38.6526 11.432C38.6513 11.9163 38.6601 12.4383 38.6129 12.8644C38.427 15.294 39.0817 17.7 39.7503 17.9746C40.8726 18.3999 41.885 18.1891 43.5645 17.608C43.7905 17.5349 43.9973 17.4123 44.1698 17.2492C44.3424 17.0861 44.4765 16.8865 44.5622 16.6651C44.7207 16.0925 44.7629 15.4941 44.6865 14.905C44.61 14.3159 44.4164 13.748 44.1171 13.2349C42.9107 10.7649 40.5319 8.3974 39.7767 8.58967L39.7579 8.59471Z" fill="#303030"/>
<path d="M43.467 1.55078C35.854 -1.98565 28.2541 0.585198 25.4103 1.90179C22.5665 3.21838 16.1642 0.436542 11.5804 0.565629C6.99667 0.694717 0.969412 3.07608 -1.38955 9.47605C-3.7485 15.876 3.26465 29.4048 3.26465 29.4048L5.73918 32.5433C5.73918 32.5433 7.45535 32.1742 10.2466 31.5271C10.2117 30.7197 10.1725 29.9336 10.1528 29.1826L9.93641 29.2406C9.88446 28.8209 8.69698 19.0453 12.4096 14.4607C15.1781 11.0568 19.7999 10.8065 23.8622 10.5752C25.309 10.5255 26.7518 10.3948 28.184 10.1835C38.7852 8.35131 46.6722 10.7656 51.7547 17.3901C52.1166 17.8346 52.4341 18.3135 52.7025 18.8201C55.1849 17.5095 56.5487 16.2769 56.1647 15.2202C54.0256 9.26917 51.1212 5.01562 43.5152 1.46726" fill="#161615"/>
<path d="M28.0524 27.1898C16.9036 30.1771 6.4987 32.4407 5.59483 32.6426L5.41607 32.6905L2.79889 29.3583C2.50836 28.8009 -4.24217 15.5748 -1.88574 9.16543C0.4707 2.75605 6.52348 0.206517 11.3551 0.0614469C13.5708 0.108054 15.7743 0.403848 17.9239 0.943258C20.7976 1.54465 23.5219 2.11547 25.1046 1.39895C27.3696 0.368531 35.3768 -2.71477 43.4424 1.04322C51.2505 4.6685 54.1287 9.05006 56.2432 14.9471C56.3149 15.1584 56.3386 15.383 56.3125 15.6046C56.2863 15.8261 56.2111 16.0391 56.0923 16.2279C54.2717 19.519 40.7021 23.8205 28.0762 27.2036L28.0524 27.1898ZM5.6813 32.0245C8.88969 31.316 52.3262 21.7041 55.5606 15.9368C55.6371 15.8225 55.6869 15.6925 55.7062 15.5564C55.7256 15.4203 55.7141 15.2815 55.6725 15.1505C53.6077 9.40142 50.7974 5.12267 43.1845 1.58625C35.3431 -2.05029 27.5447 0.946799 25.3431 1.95017C23.6105 2.74718 20.8008 2.15888 17.8205 1.53566C15.7174 1.00487 13.5618 0.709895 11.3934 0.656185C6.7626 0.797878 0.973751 3.16578 -1.29635 9.37052C-3.52211 15.402 3.00226 28.3862 3.34186 29.0514L5.6813 32.0245Z" fill="#303030"/>
<path d="M28.1783 27.66C16.8884 30.6852 6.14917 33.0182 5.70194 33.1179L5.22211 33.2464L2.41892 29.6716C2.07244 29.0183 -4.76867 15.6048 -2.34219 9.00519C0.0842951 2.40562 6.35716 -0.263404 11.3468 -0.420585C13.5976 -0.372773 15.8359 -0.0728167 18.0198 0.473657C20.8295 1.06195 23.4685 1.61532 24.88 0.974916C27.1895 -0.0775174 35.3704 -3.22754 43.6287 0.609899C51.5869 4.3059 54.521 8.7834 56.6872 14.7977C56.7809 15.0747 56.813 15.3689 56.7812 15.6596C56.7494 15.9503 56.6544 16.2306 56.5028 16.4807C54.932 19.3116 45.4123 23.0724 28.1858 27.6883L28.1783 27.66ZM5.85182 31.4946C23.137 27.7 52.6524 20.1745 55.1197 15.7219C55.255 15.4739 55.2178 15.373 55.1958 15.3284C53.1732 9.69916 50.4188 5.51634 42.9628 2.0387C35.3072 -1.50645 27.6732 1.42645 25.5254 2.40528C23.6474 3.26144 20.7668 2.67197 17.708 2.01936C15.6517 1.50172 13.5449 1.21075 11.4252 1.15163C6.94313 1.28374 1.37251 3.56292 -0.825695 9.54672C-3.02391 15.5305 3.51086 28.29 3.78946 28.8406L5.85182 31.4946Z" fill="#303030"/>
<path d="M12.3462 47.532C12.3462 47.532 20.801 65.5751 40.1409 60.1913C59.4809 54.8075 60.2642 35.6402 60.2642 35.6402L38.855 36.2745L12.3462 47.532Z" fill="#161615"/>
<path d="M39.9467 60.6666C29.9834 63.3363 22.9576 59.7333 18.8163 56.2448C16.0545 53.888 13.7729 51.0208 12.0966 47.8002L11.9594 47.5143L38.8225 36.1115L60.5504 35.4624L60.537 35.7887C60.2307 39.3895 59.2689 42.9039 57.6991 46.1589C56.0246 49.6952 53.5936 52.8203 50.578 55.3133C47.5624 57.8063 44.0358 59.6063 40.2478 60.5859L39.9561 60.6641L39.9467 60.6666ZM12.7861 47.7768C14.42 50.8152 16.6056 53.5226 19.231 55.7605C25.1511 60.769 32.166 62.1867 40.0795 59.9957C43.7935 59.0446 47.2522 57.2869 50.2097 54.8474C53.1672 52.4079 55.5509 49.3468 57.1911 45.8816C58.6735 42.7925 59.6119 39.471 59.9651 36.0629L38.9473 36.6528L12.7861 47.7768Z" fill="#303030"/>
<path d="M40.0426 61.0246C29.9193 63.7371 22.7837 60.0627 18.5726 56.5022C15.7749 54.1022 13.4613 51.1901 11.7561 47.9222L11.4667 47.2939L38.7286 35.7237L38.7945 35.706L60.9735 35.047L60.943 35.7611C60.6256 39.4132 59.6506 42.9779 58.0651 46.2832C56.3715 49.8795 53.9047 53.0574 50.8409 55.5901C47.7771 58.1228 44.1918 59.9477 40.3411 60.9345L40.0426 61.0246ZM13.2927 47.9743C14.8882 50.8254 16.9737 53.3728 19.4536 55.4997C25.2775 60.413 32.1745 61.8421 39.977 59.6506C43.6391 58.714 47.0503 56.983 49.9686 54.5804C52.8868 52.1778 55.2406 49.1624 56.8629 45.7482C58.2587 42.814 59.1675 39.6722 59.5535 36.446L38.9849 37.0566L13.2927 47.9743Z" fill="#303030"/>
<path d="M2.33332 29.6945C1.7361 30.2882 1.79872 31.7638 2.36557 33.5782C2.93242 35.3927 2.60845 36.7803 2.95948 37.5635C3.31052 38.3467 3.90393 40.3355 4.55716 42.51C5.2104 44.6845 5.98063 47.6343 6.6714 48.6694C7.36217 49.7044 7.87928 51.3708 8.42649 51.4561C8.9737 51.5414 13.5656 50.3514 16.2259 49.3663C18.8862 48.3812 32.2402 44.7425 34.303 44.0486C36.3657 43.3547 47.263 40.4449 49.7878 39.97C52.3126 39.4952 61.0474 38.3749 62.4913 36.425C63.9351 34.4751 63.2139 28.961 62.4506 27.1286C61.6874 25.2962 60.8719 20.2207 59.8039 18.5305C58.7359 16.8403 57.5415 14.3772 56.0328 14.5798C53.2021 15.171 50.4066 15.92 47.6595 16.8234C45.418 17.5652 38.1997 19.7917 36.1017 20.3539C34.0036 20.9161 23.8709 23.6311 22.1917 23.95C20.5125 24.2688 10.9318 27.3503 8.67011 28.0168C6.40844 28.6833 4.94106 28.8143 3.91557 29.0891C2.89007 29.3639 2.95556 29.0438 2.3145 29.6996" fill="#161615"/>
<path d="M58.5517 38.5799C56.4536 39.1421 53.8742 39.6013 51.4002 40.0021L49.8288 40.2719C47.2262 40.7575 36.334 43.6861 34.3817 44.3403C33.55 44.6237 30.907 45.3722 27.8337 46.2461C23.3918 47.5069 17.8637 49.0789 16.2858 49.663C13.9566 50.5292 9.05372 51.9135 8.3264 51.7957C7.82371 51.6884 7.48158 51.0137 7.04133 50.1233C6.84158 49.6894 6.61433 49.2686 6.36095 48.8637C5.57037 47.2637 4.96647 45.5782 4.56116 43.8402C4.44771 43.4168 4.33679 43.0029 4.23343 42.6171C3.56507 40.3862 2.98242 38.4752 2.64584 37.7082C2.48019 37.2223 2.40121 36.711 2.41251 36.1977C2.40083 35.3475 2.27618 34.5027 2.04184 33.6853C1.7242 32.4999 1.20907 30.3893 2.08953 29.4979C2.21281 29.3333 2.37056 29.1975 2.55175 29.1002C2.73294 29.0029 2.9332 28.9463 3.13852 28.9345C3.37291 28.9156 3.60486 28.8737 3.83104 28.8094C4.21678 28.7061 4.64956 28.5901 5.16836 28.5317C6.31588 28.3365 7.4507 28.0728 8.56677 27.7421L11.9561 26.6928C15.6765 25.5245 20.8966 23.8939 22.1166 23.6678C23.3367 23.4417 28.133 22.1868 36.0077 20.0768C38.134 19.507 45.3403 17.2736 47.5561 16.5488C50.3327 15.6304 53.1598 14.8728 56.0236 14.28C57.504 14.0849 58.6294 15.9514 59.6233 17.5909C59.7767 17.8624 59.937 18.122 60.0948 18.3721C60.8778 20.0522 61.4503 21.8225 61.7995 23.6429C62.0487 24.7862 62.3707 25.9125 62.7635 27.0147C63.5217 28.8283 64.3284 34.5111 62.7737 36.6117C62.1867 37.3942 60.6146 38.0373 58.6012 38.5767L58.5517 38.5799ZM40.9415 41.8768C44.4884 40.9264 48.349 39.9423 49.7597 39.6753L51.3499 39.4004C54.5284 38.8815 61.1325 37.7876 62.2833 36.249C63.6394 34.4235 62.9365 29.0154 62.2003 27.2463C61.8005 26.1156 61.4709 24.9612 61.2137 23.7898C60.8726 22.032 60.3259 20.3203 59.585 18.6902C59.4233 18.4377 59.263 18.1782 59.1041 17.9115C58.2121 16.4262 57.2432 14.7296 56.1046 14.8834C53.2926 15.4694 50.5159 16.2135 47.7877 17.1119C45.5813 17.8342 38.3467 20.0752 36.2111 20.6475C28.3176 22.7625 23.3656 24.039 22.2729 24.2511C21.1802 24.4632 15.7224 26.1475 12.1782 27.2585L8.78892 28.3078C7.65097 28.6445 6.49422 28.914 5.32466 29.1151C4.83543 29.2461 4.36367 29.2919 4.03438 29.3801C3.77592 29.4481 3.51311 29.4983 3.24778 29.5304C2.98435 29.601 2.91277 29.5596 2.57124 29.9033C2.08809 30.3957 2.12483 31.7371 2.66715 33.4976C2.91343 34.3622 3.04756 35.2548 3.06623 36.1536C3.05598 36.5948 3.11602 37.0348 3.24409 37.4572C3.59765 38.2498 4.18534 40.1797 4.85874 42.4294C4.96462 42.8246 5.07302 43.2291 5.18646 43.6525C5.58678 45.3295 6.1622 46.9599 6.90325 48.5167C7.17487 48.9428 7.41831 49.3862 7.63202 49.8441C7.88861 50.3501 8.27728 51.1232 8.49317 51.1763C11.0992 50.7395 13.6574 50.054 16.1327 49.1293C17.7388 48.5376 23.0412 47.0261 27.7276 45.6998C30.7853 44.8805 33.3499 44.1025 34.2191 43.8091C35.0884 43.5157 37.9597 42.7161 40.9233 41.922" fill="#303030"/>
<path d="M58.6145 38.8151C56.4976 39.3823 53.9183 39.8415 51.4348 40.2448L49.9137 40.5515C47.3205 41.0346 36.4471 43.9582 34.4947 44.6124C33.6631 44.8958 31.0295 45.6418 27.9468 46.5182C23.5049 47.779 17.9861 49.3485 16.4083 49.9326C14.1894 50.7591 9.15554 52.2188 8.31145 52.0417C7.69267 51.915 7.32601 51.1864 6.82863 50.271C6.63031 49.8469 6.4056 49.4356 6.15581 49.0395C5.35068 47.4174 4.73677 45.7072 4.32644 43.9433C4.213 43.52 4.1046 43.1154 3.99872 42.7203C3.33288 40.4988 2.75527 38.6065 2.42121 37.849C2.24508 37.3352 2.16158 36.7943 2.1746 36.2513C2.15372 35.4216 2.03115 34.5977 1.80965 33.7979C1.34481 32.2889 0.992323 30.296 1.92166 29.3613C2.06527 29.1786 2.24551 29.028 2.45079 28.9192C2.65607 28.8104 2.88186 28.7457 3.11363 28.7293C3.33533 28.7139 3.55481 28.6753 3.76851 28.6143C4.16366 28.5084 4.59644 28.3925 5.12465 28.3316C6.26271 28.1388 7.38814 27.8776 8.49483 27.5496C9.11578 27.3832 10.2648 27.0048 11.6232 26.5802L11.9525 26.492C15.7294 25.3086 20.9118 23.688 22.1413 23.4594C23.2058 23.2549 28.1389 21.9835 36.0136 19.8734C38.1398 19.3037 45.3462 17.0703 47.5432 16.3505C50.3187 15.4286 53.146 14.671 56.0106 14.0817C57.6561 13.8626 58.8203 15.7993 59.8413 17.5021C60.0081 17.7734 60.1684 18.033 60.3222 18.2808C61.1186 19.9801 61.7004 21.7719 62.054 23.6149C62.2872 24.7514 62.5877 25.8729 62.954 26.9737C63.7587 28.8857 64.5756 34.6062 62.935 36.8003C62.3737 37.5658 60.9698 38.2344 58.6365 38.8596L58.6145 38.8151ZM41.007 42.2725C44.5539 41.3221 48.3957 40.3432 49.797 40.0786L51.3778 39.8063C53.8424 39.4081 56.4124 38.9514 58.5105 38.3892C60.6085 37.827 62.0577 37.1766 62.545 36.5115C64.0258 34.5114 63.2273 28.897 62.5081 27.1537C62.1121 26.0387 61.7868 24.9 61.534 23.7442C61.1897 21.9497 60.6272 20.204 59.8589 18.5462C59.7036 18.3054 59.5408 18.0364 59.378 17.7675C58.4299 16.1863 57.3555 14.3969 56.0306 14.5704C53.1956 15.1575 50.3967 15.9075 47.6479 16.8165C45.4509 17.5363 38.2257 19.7748 36.0901 20.347C28.206 22.4596 23.2634 23.7335 22.1801 23.9431C21.0968 24.1527 15.8153 25.7797 12.0478 26.9606L11.7844 27.0312L8.65599 28.0005C7.53055 28.3337 6.38633 28.5999 5.22936 28.7977C4.73073 28.9313 4.26837 28.9745 3.91086 29.0703C3.67119 29.1335 3.42712 29.1787 3.18071 29.2054C3.00757 29.2142 2.83861 29.2617 2.68625 29.3444C2.5339 29.4271 2.40204 29.5429 2.30039 29.6833C1.72198 30.2719 1.72496 31.7131 2.35029 33.6328C2.58964 34.4655 2.7185 35.326 2.73356 36.1923C2.72144 36.6761 2.79269 37.1584 2.9442 37.6181C3.28583 38.4039 3.86848 40.3149 4.53936 42.5552C4.64272 42.941 4.75364 43.3549 4.86708 43.7783C5.26988 45.4925 5.86126 47.1569 6.63042 48.741C6.88992 49.1476 7.12427 49.5697 7.33212 50.005C7.72584 50.7969 8.05603 51.4648 8.44263 51.5528C9.06141 51.6794 13.8307 50.3611 16.2703 49.4553C17.867 48.8662 23.3952 47.2942 27.837 46.0334C30.8915 45.1645 33.5251 44.4185 34.385 44.1276C35.2448 43.8367 38.0691 43.0497 41.0704 42.2455L41.007 42.2725ZM58.6 38.2341C56.5866 38.7736 54.038 39.2347 51.4203 39.6638L51.3262 39.689L49.8294 39.8985C48.3597 40.1713 44.3135 41.2151 41.03 42.095C37.7466 42.9748 35.1781 43.663 34.3352 43.9796C33.4924 44.2962 30.8888 45.0039 27.8437 45.8702C23.3925 47.1335 17.8643 48.7055 16.2582 49.2972C13.7507 50.2493 11.1533 50.9453 8.50578 51.3745C8.20958 51.3228 7.9493 50.8782 7.47005 49.9176C7.25984 49.4695 7.02212 49.0348 6.75826 48.6159C5.99611 47.0431 5.4082 45.3916 5.00501 43.6909L4.97224 43.5686C4.8714 43.1923 4.77056 42.816 4.67729 42.4679C4.00641 40.2275 3.42124 38.3071 3.07961 37.5213C2.93318 37.0743 2.86222 36.606 2.86964 36.1356C2.85967 35.2557 2.73051 34.3813 2.48569 33.5361C1.91565 31.6721 1.8989 30.2548 2.46604 29.6994C2.84017 29.3269 2.93861 29.2804 3.29243 29.2461C3.54513 29.2174 3.79544 29.1705 4.0414 29.1059C4.40832 29.0076 4.8317 28.8941 5.33168 28.8408C6.49795 28.6399 7.65152 28.3712 8.78654 28.0361L12.0843 27.0214L12.0937 27.0189C15.6473 25.9053 21.0154 24.225 22.2166 24.0039C23.4178 23.7829 28.2518 22.5179 36.1359 20.4054C38.2622 19.8356 45.4686 17.6022 47.7032 16.8723C50.4426 15.9658 53.2321 15.2184 56.0577 14.6337C57.3048 14.471 58.3597 16.2252 59.3052 17.797C59.4674 18.0763 59.6277 18.3358 59.7861 18.5757C60.5396 20.2219 61.0946 21.9519 61.4393 23.7292C61.6944 24.8945 62.0222 26.0427 62.4209 27.1669C63.1351 28.8915 63.9348 34.435 62.4771 36.4087C61.9503 37.1146 60.5048 37.7036 58.5573 38.2254L58.6 38.2341ZM40.8714 41.6534C44.1643 40.7711 48.2098 39.6871 49.7084 39.4469L51.2045 39.1973L51.2986 39.1721C54.1942 38.6886 60.959 37.592 62.0847 36.1105C63.3644 34.3761 62.6596 28.9987 61.9656 27.3494C61.5634 26.2092 61.2314 25.0455 60.9714 23.8647C60.6359 22.1292 60.0984 20.4389 59.3698 18.8284L58.8889 18.0498C58.0698 16.6861 57.0633 14.9996 56.0922 15.1388C53.2959 15.7206 50.5349 16.4604 47.8223 17.3547C45.6159 18.077 38.372 20.3205 36.2363 20.8927C28.3428 23.0078 23.3814 24.2868 22.2793 24.5014C21.1772 24.7161 15.7288 26.3978 12.2128 27.5012L12.1188 27.5264L8.81413 28.5531C7.66984 28.8912 6.50685 29.1624 5.33105 29.3654C4.84183 29.4964 4.37006 29.5422 4.05959 29.6254C3.78896 29.6998 3.51231 29.7503 3.23284 29.7763C3.00704 29.8368 2.99763 29.8393 2.70179 30.09C2.40595 30.3407 2.26173 31.4583 2.86202 33.4352C3.1164 34.3183 3.25252 35.2313 3.26682 36.1502C3.26235 36.5615 3.31779 36.9713 3.4314 37.3666C3.79 38.178 4.38525 40.1361 5.05361 42.367C5.14941 42.7245 5.25025 43.1009 5.35108 43.4772L5.38386 43.5995C5.78317 45.2495 6.34845 46.8548 7.07107 48.391C7.34834 48.8256 7.59743 49.2775 7.81681 49.744C8.00369 50.1759 8.24474 50.5824 8.53414 50.9535C11.0915 50.4722 13.6029 49.7723 16.0406 48.8615C17.6655 48.2647 22.9679 46.7532 27.6449 45.4294C30.712 44.6076 33.3236 43.817 34.127 43.5413C34.9304 43.2655 37.6324 42.5112 40.8501 41.6491" fill="#303030"/>
<path d="M34.5192 44.9284C34.0509 45.0509 33.572 45.1286 33.0889 45.1603L32.619 45.1753L32.7961 44.7447C33.0957 43.7422 33.1841 42.6884 33.0559 41.65C32.5789 38.6525 31.9413 35.6828 31.146 32.7536L31.0754 32.4902C30.2565 29.1702 27.8696 22.2571 27.8375 22.1749L27.7644 21.9021L30.481 20.7506L30.5642 21.0611C32.1736 25.5496 33.537 30.1226 34.6482 34.7597L34.87 35.5876C36.0533 41.3208 36.4329 43.9417 35.6147 44.4634C35.2805 44.6685 34.9164 44.8205 34.5355 44.9139L34.5192 44.9284ZM33.496 44.4967C34.121 44.4441 34.7281 44.2608 35.2778 43.9587C35.8922 43.542 34.754 38.2404 34.2691 35.678L34.0472 34.8501C32.9798 30.3429 31.6611 25.899 30.0974 21.5392L28.4575 22.2306C28.9096 23.5414 30.881 29.3558 31.6186 32.3346L31.6841 32.5792C32.4864 35.5366 33.1315 38.5345 33.6167 41.5602C33.7164 42.5524 33.6437 43.5544 33.4019 44.5219" fill="#303030"/>
<path d="M34.5825 45.1639C34.0954 45.2932 33.5964 45.3728 33.0933 45.4016L32.2363 45.4396L32.561 44.6569C32.8336 43.6816 32.9033 42.6608 32.7657 41.6576C32.2831 38.6711 31.645 35.7119 30.854 32.7919L30.7935 32.5661C29.9821 29.2744 27.5877 22.333 27.5606 22.2697L27.4296 21.7805L30.6365 20.427L30.7853 20.9821C32.3965 25.4803 33.7624 30.0626 34.8768 34.7089L35.0986 35.5368C36.3822 41.7574 36.6718 44.0797 35.7464 44.6907C35.3921 44.9146 35.0039 45.0799 34.5969 45.1802L34.5825 45.1639ZM33.0212 44.9067L33.1058 44.884C33.5764 44.8574 34.043 44.783 34.4984 44.6621C34.8541 44.5759 35.1938 44.4338 35.505 44.2411C36.2572 43.737 35.5639 40.0204 34.6482 35.5869L34.4264 34.759C33.3138 30.136 31.957 25.5751 30.3619 21.0956L30.3468 21.0391L28.0453 22.0087L28.0605 22.0652C28.0781 22.131 30.4768 29.0511 31.3034 32.3993L31.3689 32.6439C32.1674 35.5856 32.8083 38.5678 33.2889 41.5779C33.4309 42.6734 33.3335 43.7866 33.0035 44.8408L33.0212 44.9067ZM34.47 44.5184C34.1555 44.6038 33.8352 44.666 33.5116 44.7047L33.1603 44.7484L33.2395 44.4045C33.4577 43.4654 33.5117 42.4957 33.3992 41.5382C32.9167 38.5219 32.2741 35.5335 31.4743 32.5854L31.4239 32.3972C30.6786 29.3903 28.6701 23.4749 28.2703 22.3215L28.2098 22.0957L30.3024 21.2123L30.3705 21.4664C31.9404 25.8311 33.267 30.2795 34.3442 34.7911L34.5686 35.6284C35.7834 41.5548 36.0289 43.7881 35.4729 44.159C35.1759 44.3431 34.851 44.4778 34.5109 44.5579L34.47 44.5184ZM33.8717 44.2048C34.3408 44.142 34.7928 43.9866 35.2013 43.7477C35.6342 43.2183 34.4668 37.5817 34.0624 35.7338L33.838 34.8965C32.7893 30.4686 31.498 26.1018 29.97 21.8157L28.776 22.3272C29.3099 23.8681 31.1623 29.3514 31.8723 32.2267L31.9378 32.4713C32.7451 35.4411 33.3904 38.4526 33.871 41.4925C33.9717 42.3871 33.9423 43.2917 33.7839 44.1779" fill="#303030"/>
<path d="M58.7357 39.2664C56.6471 39.8261 54.1053 40.2752 51.5629 40.6842L50.0104 40.9489C47.4291 41.4389 36.5933 44.3524 34.6504 45.0041C33.7942 45.2335 31.1663 46.0385 28.1024 46.9099C23.67 48.1682 18.1512 49.7377 16.6016 50.3142C14.8851 50.9456 9.35707 52.6688 8.26634 52.4367C7.4367 52.2758 6.98771 51.4281 6.5172 50.4248C6.32911 50.0185 6.11574 49.6244 5.87833 49.2448C5.05012 47.5897 4.4166 45.8442 3.99048 44.0432L3.66024 42.8107C3.03154 40.6902 2.43376 38.7227 2.10474 37.984C1.90827 37.419 1.81036 36.8245 1.81528 36.2263L1.79407 35.8085L1.2727 27.4274L3.80497 35.8243C3.90832 36.21 4.02176 36.6334 4.13521 37.0568C4.52479 38.6616 5.07181 40.2241 5.76831 41.7215C6.05797 42.1718 6.31537 42.6419 6.53858 43.1285C6.69529 43.4571 6.86865 43.7775 7.05798 44.0885C9.48086 43.5721 11.8653 42.8894 14.1943 42.0452C15.8286 41.446 21.1404 39.9319 25.8432 38.5912C28.8915 37.7744 31.4654 36.9939 32.2996 36.72C34.2708 36.0607 45.2947 33.0968 47.9161 32.6062L49.5157 32.3288C52.124 31.9022 59.0349 30.7865 60.0233 29.4326C60.6748 28.5522 60.8438 26.0969 60.4378 23.4528L62.3522 23.071L62.4631 23.4849C62.6918 24.6057 62.9881 25.7116 63.3505 26.7966C64.1754 28.7839 64.9982 34.7145 63.2749 37.0519C62.584 37.9731 60.8833 38.7011 58.6912 39.2884L58.7357 39.2664ZM40.7306 41.2775C44.3058 40.3196 48.1725 39.2835 49.6053 39.0609L51.2049 38.7835C53.8132 38.3569 60.7241 37.2413 61.7151 35.8968C62.5212 34.8035 62.4618 31.8346 62.0514 29.6253C61.9245 29.9822 61.7463 30.3187 61.5224 30.6242C60.1731 32.4378 54.9723 33.3876 49.7658 34.2785L48.2133 34.5433C45.6295 35.0238 34.7963 37.9468 32.8508 38.5891C32.0098 38.8749 29.3667 39.6234 26.3028 40.4948C21.8729 41.7625 16.3542 43.332 14.802 43.8992C13.2498 44.4663 7.80899 46.1763 6.55463 46.0485C6.76412 46.7906 7.05427 47.5075 7.41989 48.1864C7.70856 48.6372 7.96593 49.1073 8.19016 49.5934C8.34687 49.922 8.52022 50.2424 8.70955 50.5533C11.1336 50.0418 13.5184 49.359 15.8459 48.5101C17.4802 47.9108 22.792 46.3968 27.4973 45.0654C30.5455 44.2486 33.117 43.4587 33.9511 43.1848C34.7853 42.9109 37.6918 42.0918 40.693 41.2876" fill="#303030"/>
<path d="M31.271 10.4151L29.8857 11.4921L28.867 12.7331L28.7196 14.3658L28.5887 15.5706L29.3689 17.9934L30.4051 21.8602L31.1828 22.7308L33.9032 22.6472L37.3749 21.717L39.0633 20.6797L39.7518 19.3356L39.8165 17.2814L38.2738 14.7604L36.8524 12.4287L35.4941 10.8969L34.6929 9.90152L32.8333 9.88556L30.7139 10.4434L31.271 10.4151Z" fill="#161615"/>
<path d="M30.6212 23.0427C30.2277 22.9666 29.911 22.5372 29.6295 21.6749C28.9601 19.666 27.7386 16.0103 28.3522 13.4459C28.5216 12.776 28.8317 12.1499 29.2617 11.609C29.3858 11.4395 29.5213 11.2786 29.667 11.1273C30.629 10.1637 32.2889 9.96092 33.79 9.73012C35.2911 9.49932 36.2946 10.7228 37.3408 12.5198C37.5426 12.859 37.7375 13.2101 37.9462 13.5373C40.0836 16.9981 40.6585 19.2944 39.7277 20.5623C39.2034 21.2775 37.704 21.8911 36.0481 22.3347C34.2883 22.8579 32.4563 23.0968 30.6212 23.0427ZM33.8589 10.1755C32.339 10.4114 29.737 11.3506 29.3829 12.7765C29.0333 15.7065 29.3137 18.6774 30.2052 21.4903C30.4094 22.2524 30.67 22.4347 30.734 22.4478C31.9571 22.6847 38.2049 21.6157 39.2014 20.1789C39.7257 19.4637 39.8392 17.7796 37.3888 13.8279L36.8116 12.8027C35.8087 11.0547 35.0439 9.96892 33.8539 10.1567" fill="#FBFBF2"/>
<path d="M36.1411 22.6825C34.3302 23.221 32.4443 23.4642 30.5561 23.4026C29.8544 23.2679 29.5103 22.4727 29.2767 21.7891C28.5519 19.5733 27.3693 15.9878 28.0268 13.3613C28.2054 12.6382 28.5364 11.9616 28.9976 11.3768C29.137 11.1953 29.2855 11.0209 29.4424 10.8543C30.4275 9.8643 32.0654 9.61702 33.5007 9.40386L33.7547 9.3358C35.6141 9.04935 36.6674 10.5721 37.6797 12.3176C37.901 12.6919 38.0883 13.0148 38.2826 13.3258C40.5318 16.9784 41.0937 19.3387 40.0426 20.7598C39.3936 21.6496 37.578 22.2874 36.1668 22.6655L36.1411 22.6825ZM30.902 22.0595C32.2895 22.2322 38.1068 21.1373 38.9461 19.9041C39.3251 19.3992 39.5912 17.9464 37.1333 13.9665C36.9221 13.6298 36.7152 13.2718 36.5109 12.9232C35.4986 11.1777 34.8138 10.3528 33.9223 10.4505C32.3528 10.6896 30.025 11.636 29.7465 12.7795C29.4161 15.6434 29.6919 18.5447 30.556 21.2951C30.6278 21.5539 30.7413 21.7994 30.892 22.0218L30.902 22.0595ZM29.0573 12.5406C28.9074 12.8285 28.7927 13.1335 28.7158 13.4489C28.4391 15.396 28.6255 17.3809 29.2598 19.2425C28.7931 17.0613 28.7066 14.8159 29.0041 12.6053L28.9915 12.5583L29.0573 12.5406ZM30.9486 10.6423C30.5462 10.7901 30.1785 11.019 29.8684 11.3149L29.7894 11.3966C30.1461 11.1022 30.5349 10.8491 30.9486 10.6423Z" fill="#303030"/>
<path d="M14.9837 25.1961C14.9095 25.5531 14.7365 25.8822 14.4845 26.1459C14.2325 26.4095 13.9115 26.5971 13.5581 26.6872L13.5111 26.6999C12.9936 26.8385 12.1628 26.7485 11.2135 25.6517C10.0487 24.3907 10.3711 22.2069 10.5595 21.3296C10.748 20.4522 11.2408 19.1303 11.7268 18.9496C11.9699 18.807 12.2562 18.757 12.5332 18.8087C12.8102 18.8605 13.0591 19.0106 13.2342 19.2314L13.1363 19.7316C12.9865 19.5775 12.793 19.473 12.5819 19.4322C12.3709 19.3914 12.1524 19.4162 11.9559 19.5033C11.4435 20.2414 11.1315 21.0999 11.0504 21.9947C10.9322 22.833 10.8374 24.3609 11.6603 25.2496C12.2861 25.929 12.9289 26.2206 13.4112 26.1014C13.6928 26.0041 13.9442 25.835 14.1406 25.6108C14.3369 25.3867 14.4714 25.1153 14.5309 24.8233L14.9837 25.1961Z" fill="#FBFBF2"/>
<path d="M13.6612 27.0726C12.9932 27.2516 12.0275 27.1474 10.9086 25.9447C9.62824 24.5533 9.97179 22.2227 10.1758 21.2907C10.2544 20.9067 10.7208 18.9969 11.5561 18.6521C11.8619 18.4836 12.2164 18.4256 12.56 18.4878C12.9036 18.55 13.2152 18.7286 13.4426 18.9936L13.6008 19.1327L13.3558 20.4387L12.876 20.0026C12.7838 19.9018 12.6638 19.8307 12.5313 19.798C12.3987 19.7653 12.2594 19.7726 12.131 19.819C11.7354 20.4986 11.4843 21.2524 11.3933 22.0334C11.2742 22.5322 11.2576 23.0499 11.3445 23.5553C11.4314 24.0607 11.6199 24.5431 11.8987 24.9735C12.4258 25.5482 12.9218 25.8187 13.3007 25.7273C13.6795 25.6358 13.9752 25.2339 14.1452 24.664L14.2945 24.1299L15.4155 25.0396L15.3486 25.2793C15.2698 25.7089 15.0686 26.1066 14.7693 26.4247C14.4699 26.7428 14.0852 26.9678 13.6612 27.0726Z" fill="#303030"/>
<path d="M17.8691 25.5419C17.4739 25.6478 17.0411 25.7637 16.565 25.8308C16.1925 25.9097 15.8073 25.9064 15.4362 25.8213C15.0651 25.7361 14.717 25.5711 14.4162 25.3377C13.8822 24.8375 13.456 24.2335 13.1636 23.5628C12.8712 22.8922 12.7187 22.1689 12.7156 21.4372C12.5642 19.1787 13.1649 14.722 14.8251 14.257C16.7068 13.7528 17.4922 15.2163 18.2907 16.6157C18.517 17.0088 18.7434 17.402 19.0048 17.7756C20.1864 19.4757 21.5065 22.6715 20.5374 23.9093C19.8346 24.7682 18.8545 25.3553 17.7656 25.5696L17.8691 25.5419ZM14.9626 14.8454C13.8713 15.1378 13.0776 18.7991 13.2539 21.414C13.2578 22.059 13.3899 22.6969 13.6425 23.2905C13.895 23.8841 14.2629 24.4216 14.7249 24.8718C14.9488 25.0528 15.21 25.182 15.4897 25.25C15.7695 25.3181 16.0609 25.3232 16.3429 25.2651C18.1939 24.9103 19.2771 24.5495 20.0658 23.5415C20.7179 22.7013 19.7767 19.9788 18.5027 18.1219C18.2362 17.7295 17.9954 17.32 17.7665 16.9175C16.907 15.4033 16.2986 14.4874 14.9814 14.8403L14.9626 14.8454Z" fill="#FBFBF2"/>
<path d="M17.9704 25.9183C17.5659 26.0267 17.1331 26.1426 16.6381 26.2147C16.2198 26.3001 15.7879 26.2927 15.3727 26.1932C14.9575 26.0936 14.5692 25.9043 14.2351 25.6385C13.6588 25.1098 13.198 24.4678 12.8814 23.7527C12.5649 23.0376 12.3994 22.2648 12.3955 21.4828C12.246 19.1935 12.8043 14.4659 14.8152 13.917C16.826 13.3681 17.9443 15.0953 18.7251 16.4289C18.9347 16.8194 19.1643 17.1988 19.4129 17.5656C20.4254 19.0489 22.1344 22.6043 20.9316 24.1366C20.1871 25.064 19.1411 25.7011 17.9755 25.9371L17.9704 25.9183ZM15.0792 14.8647L15.175 15.2223C14.4223 15.4239 13.551 18.6825 13.7362 21.4059C13.732 21.9997 13.8466 22.5884 14.0733 23.1372C14.3 23.6861 14.6343 24.184 15.0564 24.6017C15.2407 24.7518 15.4565 24.8584 15.6878 24.9134C15.919 24.9684 16.1597 24.9705 16.3919 24.9194C18.1489 24.5898 19.1687 24.256 19.8904 23.3366C20.332 22.7645 19.6986 20.3629 18.3202 18.3424C18.0418 17.9431 17.7985 17.5242 17.5696 17.1217C16.6762 15.5561 16.2099 14.9449 15.1938 15.2172L15.0792 14.8647Z" fill="#303030"/>
<path d="M22.7903 12.1432L20.2075 13.3798L19.5178 17.4669L19.6733 22.0739L20.3187 24.4824L21.8853 25.4744L25.2482 24.9665L29.4683 23.4425L30.3943 22.307L29.6178 19.4093L28.7291 16.5819L27.6477 14.6533L25.7933 12.2864L24.3839 12.0691L22.7903 12.1432Z" fill="#161615"/>
<path d="M25.2702 25.2026C23.6144 25.6463 22.0091 25.8647 21.1999 25.5168C19.7624 24.8936 19.1071 22.5987 19.2303 18.5423L19.2433 17.3489C19.2508 15.2696 19.2621 13.1289 20.7408 12.5511C21.9984 11.9183 23.4088 11.6522 24.8106 11.7833C25.1094 11.8417 25.4036 11.9213 25.6911 12.0213C26.3614 12.3554 26.9586 12.8191 27.4483 13.3857C29.2594 15.2903 30.058 19.3619 30.5015 21.4312C30.7334 22.2968 30.6293 22.849 30.3266 23.1116C28.7625 24.072 27.0558 24.7778 25.2702 25.2026ZM20.9604 13.1074C19.8667 13.5416 19.8652 15.4176 19.8506 17.3576C19.848 17.7616 19.8453 18.1657 19.8307 18.5629C19.6939 23.2078 20.6342 24.6096 21.4433 24.9575C23.0428 25.6583 28.9881 23.4602 29.9107 22.6886C29.9672 22.6735 30.0471 22.3698 29.89 21.5951C29.2141 18.3578 27.3267 14.0233 26.1373 13.1219C24.9479 12.2205 22.3646 12.59 20.9398 13.1432" fill="#FBFBF2"/>
<path d="M25.3659 25.5599C23.9547 25.9381 22.0634 26.2936 21.0565 25.8474C19.4332 25.1329 18.7396 22.8079 18.8637 18.5293L18.8793 17.3454C18.8848 15.1457 18.9009 12.8725 20.6073 12.2035C21.9268 11.5531 23.4016 11.2837 24.8659 11.4254C25.1923 11.4805 25.5126 11.5668 25.8224 11.6834C26.5484 12.0269 27.193 12.5211 27.7133 13.133C29.5533 15.0701 30.3813 19.0633 30.8236 21.2035L30.864 21.354C31.048 22.0408 31.1124 22.921 30.5696 23.3791C28.9688 24.3841 27.2141 25.12 25.3753 25.5574L25.3659 25.5599ZM21.1195 13.4377C20.2628 13.7781 20.2556 15.5951 20.2426 17.3532C20.24 17.7572 20.2373 18.1613 20.2228 18.5585C20.0866 23.2436 21.0485 24.3874 21.6147 24.6189C22.9525 25.2083 28.5335 23.2692 29.6556 22.4139C29.6719 22.146 29.6475 21.8772 29.5831 21.6166C28.913 18.4383 27.0677 14.2236 25.9618 13.3704C24.8559 12.5172 22.4339 12.9241 21.1195 13.4377ZM26.9739 13.4219C28.0906 15.1091 28.9602 16.9475 29.556 18.8811C29.1617 16.9792 28.338 15.1926 27.148 13.6576L26.9363 13.432L26.9739 13.4219ZM22.5041 12.3205C23.5683 12.0979 24.6715 12.1492 25.7104 12.4697L25.5126 12.3714C25.2546 12.2847 24.9905 12.2172 24.7225 12.1697C23.9812 12.0507 23.2225 12.1022 22.5041 12.3205Z" fill="#303030"/>
<path d="M50.4033 15.6951C45.3098 10.3844 37.8978 8.53865 28.3122 10.2096C26.8811 10.4242 25.4391 10.5581 23.993 10.6107C19.9282 10.8327 15.3088 11.0923 12.5403 14.4962C9.77185 17.9001 9.71783 24.6606 9.92222 27.6814L10.5244 27.5201C10.3608 24.5388 10.3362 18.1624 13.0076 14.8853C15.679 11.6082 19.8913 11.4476 24.0364 11.2243C25.5052 11.1666 26.9699 11.03 28.424 10.815C37.6633 9.20651 44.8299 10.9265 49.7692 15.9255L50.4033 15.6951Z" fill="#303030"/>
<path d="M9.57848 28.1667L9.54719 27.7112C9.31588 24.2137 9.36406 17.8077 12.2459 14.2625C15.1278 10.7172 19.8231 10.4776 23.9657 10.2449C25.3991 10.1955 26.8286 10.065 28.2473 9.8539C37.9389 8.16458 45.4438 10.056 50.6591 15.445L51.0417 15.8567L49.6701 16.3452L49.5043 16.1779C44.6491 11.2673 37.5823 9.58109 28.4679 11.1662C27.0008 11.3861 25.5225 11.523 24.04 11.5762C19.9778 11.8075 15.7831 12.034 13.2809 15.1145C10.6465 18.3413 10.7327 24.8726 10.8808 27.4951L10.8975 27.783L9.57848 28.1667Z" fill="#303030"/>
</g>
</svg>
